<svg width="669" height="659" viewBox="0 0 669 659" fill="none" xmlns="http://www.w3.org/2000/svg">
<g clip-path="url(#clip0_30_101)">
<path d="M515.208 515.249C618.482 413.517 618.482 248.579 515.208 146.848C411.933 45.1164 244.491 45.1164 141.216 146.848C37.9414 248.579 37.9414 413.517 141.216 515.249C244.491 616.98 411.933 616.98 515.208 515.249Z" fill="#250E35"/>
<path d="M622.707 275.846C622.707 230.728 584.748 194.153 537.923 194.153C491.098 194.153 453.139 230.728 453.139 275.846C453.139 300.992 464.934 323.479 483.48 338.465C483.889 335.418 484.517 332.397 485.368 329.451C490.658 311.123 503.936 295.402 521.235 287.083C515.353 285.134 509.869 281.845 505.302 277.415C493.727 266.19 490.796 249.599 497.173 234.993C504.199 218.899 520.292 209.892 537.896 211.063C538.553 211.107 539.094 211.32 539.523 211.638C539.78 211.622 540.048 211.634 540.33 211.685C557.994 214.903 571.948 230.84 572.977 248.448C573.871 263.72 564.041 278.594 550.313 285.311C562.337 289.313 573.016 296.729 580.744 306.902C587.676 316.026 591.681 326.977 592.67 338.217C611.041 323.233 622.707 300.855 622.707 275.846Z" fill="#FF52D8"/>
<path d="M550.313 285.311C564.041 278.594 573.87 263.72 572.977 248.448C571.947 230.84 557.994 214.902 540.33 211.685C540.048 211.634 539.779 211.622 539.523 211.638C539.092 211.32 538.552 211.107 537.896 211.063C520.292 209.891 504.199 218.899 497.173 234.993C490.796 249.599 493.727 266.189 505.303 277.415C509.869 281.845 515.354 285.133 521.235 287.083C503.936 295.402 490.658 311.123 485.368 329.451C484.518 332.397 483.889 335.418 483.48 338.465C498.21 350.367 517.196 357.538 537.923 357.538C558.793 357.538 577.898 350.268 592.67 338.217C591.682 326.977 587.676 316.026 580.744 306.902C573.016 296.729 562.337 289.313 550.313 285.311Z" fill="#42319C"/>
<path d="M542.732 252.539C537.9 259.967 526.949 260.364 521.756 253.065C519.724 250.206 514.912 252.933 516.967 255.822C524.558 266.494 540.337 266.343 547.52 255.296C549.451 252.327 544.653 249.584 542.732 252.539Z" fill="#E02499"/>
<path d="M510.806 243.351C510.693 243.013 510.502 242.72 510.232 242.472C509.98 242.206 509.683 242.018 509.339 241.908C509.009 241.737 508.653 241.659 508.27 241.674C508.024 241.707 507.779 241.738 507.533 241.771C507.063 241.9 506.655 242.135 506.31 242.474C505.812 243.009 505.498 243.665 505.498 244.406V245.128C505.483 245.504 505.563 245.854 505.737 246.181C505.848 246.52 506.04 246.812 506.31 247.06C506.562 247.326 506.859 247.515 507.202 247.624C507.533 247.796 507.889 247.873 508.271 247.86C508.518 247.827 508.763 247.796 509.009 247.763C509.478 247.634 509.886 247.399 510.232 247.06C510.729 246.525 511.044 245.869 511.044 245.128V244.406C511.059 244.028 510.98 243.677 510.806 243.351Z" fill="#E02499"/>
<path d="M555.894 240.951C552.325 240.951 552.319 246.415 555.894 246.415C559.463 246.415 559.469 240.951 555.894 240.951Z" fill="#E02499"/>
<path d="M329.852 382.37V413.857C329.852 413.857 448.367 413.857 458.845 413.857C469.323 413.857 490.733 417.922 485.839 442.628C480.944 467.334 458.845 573.385 458.845 573.385C458.845 573.385 545.175 580.202 546.399 501.774C547.622 423.345 458.845 360.133 458.845 360.133C458.845 360.133 461.135 348.347 445.96 344.872C445.96 344.872 429.537 329.065 414.256 344.872L329.852 382.37Z" fill="#42319C"/>
<path d="M329.852 382.37V413.857C329.852 413.857 211.339 413.857 200.86 413.857C190.382 413.857 168.971 417.922 173.865 442.628C178.76 467.334 200.86 573.385 200.86 573.385C200.86 573.385 114.529 580.202 113.305 501.774C112.082 423.345 200.86 360.133 200.86 360.133C200.86 360.133 198.569 348.347 213.745 344.872C213.745 344.872 230.167 329.065 245.448 344.872L329.852 382.37Z" fill="#42319C"/>
<path d="M471.597 249.974C471.597 249.974 480.621 301.544 441.633 341.656L400.928 356.175L421.608 228.113C421.608 228.113 452.462 239.9 471.597 249.974Z" fill="#210C65"/>
<path d="M171.626 249.974C171.626 249.974 166.104 313.335 205.092 353.447L242.295 356.175L221.615 228.113C221.615 228.113 190.76 239.9 171.626 249.974Z" fill="#210C65"/>
<path d="M324.346 111.816C324.346 111.816 407.126 104.534 429.886 173.761C429.886 173.761 464.086 206.156 471.597 249.974C471.597 249.974 311.357 156.738 170.753 265.812C170.753 265.812 169.363 201.364 205.824 183.883C205.824 183.883 241.153 107.598 324.346 111.816Z" fill="#42319C"/>
<path d="M277.825 149.374C250.24 150.465 223.668 163.092 205.824 183.883C203.414 186.691 207.52 190.777 209.949 187.947C226.813 168.298 251.696 156.155 277.825 155.122C281.566 154.973 281.586 149.225 277.825 149.374Z" fill="#210C65"/>
<path d="M438.305 185.425C425.416 162.971 400.862 149.917 375.927 144.615C372.267 143.837 370.703 149.376 374.377 150.157C397.875 155.154 421.092 167.116 433.267 188.326C435.115 191.545 440.157 188.652 438.305 185.425Z" fill="#210C65"/>
<path d="M190.664 508.863C190.641 508.615 190.584 508.354 190.481 508.08C185.866 495.967 175.955 486.604 163.4 482.724C159.808 481.614 158.272 487.161 161.849 488.265C170.496 490.937 177.89 496.815 182.39 504.491C171.865 500.26 160.095 499.49 149 502.43C145.378 503.389 146.915 508.934 150.551 507.97C162.929 504.691 176.069 506.605 186.983 513.212C189.892 514.976 192.575 511.052 190.664 508.863Z" fill="#210C65"/>
<path d="M520.215 507.874C511.957 502.043 501.529 499.614 491.547 500.911C498.396 496.368 506.267 493.327 514.501 492.249C518.169 491.769 518.217 486.016 514.501 486.503C496.964 488.797 481.28 498.308 471.481 512.859C469.399 515.95 474.45 518.831 476.518 515.76C478.062 513.466 479.791 511.302 481.672 509.279C482.111 509.36 482.61 509.309 483.16 509.083C494.476 504.409 507.288 505.789 517.268 512.836C520.327 514.994 523.243 510.012 520.215 507.874Z" fill="#210C65"/>
<path d="M296.35 408.981C277.484 391.23 258.238 373.874 238.627 356.924C235.815 354.493 231.674 358.542 234.502 360.987C254.113 377.936 273.358 395.293 292.225 413.044C294.94 415.598 299.072 411.54 296.35 408.981Z" fill="#210C65"/>
<path d="M289.351 411.94C275.436 406.652 262.022 400.136 249.289 392.486C243.12 388.78 237.086 384.83 231.288 380.581C225.8 376.558 220.673 372.002 217.407 365.997C215.632 362.736 210.595 365.634 212.369 368.898C215.738 375.09 220.875 379.895 226.469 384.143C232.534 388.748 238.935 392.957 245.454 396.911C258.886 405.057 273.088 411.891 287.8 417.482C291.306 418.814 292.823 413.26 289.351 411.94Z" fill="#210C65"/>
<path d="M441.047 345.781C421.192 367.312 400.472 388.054 378.935 407.954C376.191 410.49 380.323 414.548 383.061 412.017C404.597 392.117 425.317 371.376 445.172 349.845C447.693 347.113 443.578 343.037 441.047 345.781Z" fill="#210C65"/>
<path d="M453.384 361.517C441.408 381.619 423.631 397.826 402.415 408.131C399.047 409.766 402 414.725 405.36 413.093C427.421 402.379 445.976 385.308 458.422 364.417C460.326 361.222 455.286 358.326 453.384 361.517Z" fill="#210C65"/>
<path d="M471.597 249.975C442.331 223.284 400.881 217.469 362.717 214.145C317.959 210.246 271.535 210.777 228.955 226.513C207.827 234.321 188.103 245.645 171.652 260.944C168.916 263.488 173.048 267.546 175.777 265.008C205.031 237.803 244.537 224.081 283.983 219.707C306.734 217.184 329.717 217.469 352.525 219.085C372.312 220.486 392.24 222.424 411.573 226.964C432.007 231.762 451.888 239.825 467.472 254.038C470.224 256.547 474.359 252.493 471.597 249.975Z" fill="#E02499"/>
<path d="M209.867 238.963C209.867 238.963 202.258 395.831 325.018 395.831C447.778 395.831 436.736 234.45 436.736 234.45C436.736 234.45 324.204 186.96 211.996 236.929" fill="#FF95E6"/>
<path d="M329.618 323.669C327.892 324.181 326.174 324.55 324.368 324.625C323.581 324.658 322.793 324.658 322.007 324.608C321.714 324.589 320.54 324.34 320.181 324.369C318.757 322.77 315.786 322.899 315.166 324.805C314.159 325.592 313.666 326.926 314.586 328.309C316.304 330.89 319.24 334.088 322.619 334.242C326.179 334.406 329.907 330.582 332.456 328.473C334.729 326.593 332.293 322.877 329.618 323.669Z" fill="#E02499"/>
<path d="M344.984 350.309C332.576 356.727 317.369 356.283 305.311 349.292C302.069 347.413 299.129 352.378 302.366 354.255C316.255 362.309 333.68 362.642 347.929 355.271C351.253 353.55 348.309 348.589 344.984 350.309Z" fill="#E02499"/>
<path d="M314.983 274.705C314.983 274.705 313.668 259.34 307.09 256.98C300.513 254.619 216.574 254.157 212.171 256.98C207.768 259.803 208.425 268.875 209.083 274.705C209.741 280.536 216.854 282.48 216.854 282.48C216.854 282.48 225.364 310.297 228.653 319.025C231.941 327.752 239.018 332.371 249.375 332.371C259.732 332.371 295.251 332.371 295.251 332.371C295.251 332.371 305.776 330.427 310.38 320.061C314.984 309.693 318.931 293.702 318.931 293.702H330.464V274.057L314.983 274.705Z" fill="#210C65"/>
<path d="M296.115 327.166C292.66 330.44 287.698 330.73 283.145 330.706C277.076 330.676 270.998 330.353 264.931 330.162C255.293 329.858 244.005 330.076 236.442 323.213C233.685 320.71 229.549 324.764 232.317 327.276C241.179 335.319 253.555 335.551 264.931 335.908C271.705 336.12 278.555 336.649 285.332 336.425C290.819 336.244 296.176 335.079 300.24 331.228C302.95 328.66 298.821 324.6 296.115 327.166Z" fill="#E02499"/>
<path d="M302.182 275.157C298.899 270.216 292.899 270.216 287.498 270.065C279.578 269.843 271.653 269.752 263.729 269.789C256 269.825 248.27 269.984 240.545 270.268C234.937 270.473 225.91 271.443 226.793 279.168C227.209 282.802 233.046 282.843 232.626 279.168C232.245 275.836 237.13 276.146 239.385 276.058C242.474 275.936 245.565 275.841 248.656 275.762C254.45 275.615 260.248 275.537 266.046 275.528C271.843 275.519 277.641 275.579 283.437 275.708C286.252 275.772 289.103 275.739 291.91 275.973C293.762 276.127 296.037 276.394 297.141 278.056C299.192 281.141 304.245 278.264 302.182 275.157Z" fill="#E02499"/>
<path d="M331.419 274.705C331.419 274.705 332.734 259.34 339.312 256.98C345.889 254.619 429.828 254.157 434.231 256.98C438.636 259.803 437.977 268.875 437.319 274.705C436.661 280.536 429.548 282.48 429.548 282.48C429.548 282.48 421.038 310.297 417.749 319.025C414.461 327.752 407.384 332.371 397.028 332.371C386.67 332.371 351.152 332.371 351.152 332.371C351.152 332.371 340.627 330.427 336.023 320.061C331.419 309.693 327.472 293.702 327.472 293.702H315.94V274.057L331.419 274.705Z" fill="#210C65"/>
<path d="M344.22 275.157C347.503 270.216 353.503 270.216 358.904 270.065C366.824 269.843 374.749 269.752 382.671 269.789C390.401 269.825 398.13 269.984 405.856 270.268C411.464 270.473 420.491 271.443 419.607 279.168C419.19 282.802 413.353 282.843 413.773 279.168C414.154 275.836 409.269 276.146 407.013 276.058C403.924 275.936 400.833 275.841 397.742 275.762C391.947 275.615 386.15 275.537 380.351 275.528C374.553 275.519 368.756 275.579 362.96 275.708C360.145 275.772 357.293 275.739 354.486 275.973C352.634 276.127 350.36 276.394 349.256 278.056C347.209 281.141 342.155 278.264 344.22 275.157Z" fill="#E02499"/>
<path d="M327.893 291.405C325.306 290.63 322.585 290.351 319.897 290.653C318.332 290.829 316.981 291.849 316.981 293.526C316.981 294.943 318.321 296.576 319.897 296.4C322.123 296.151 324.2 296.304 326.343 296.945C329.942 298.025 331.48 292.479 327.893 291.405Z" fill="#E02499"/>
<path d="M351.454 326.016C354.909 329.29 359.87 329.58 364.423 329.558C370.493 329.528 376.571 329.205 382.638 329.014C392.275 328.71 403.564 328.928 411.126 322.065C413.884 319.562 418.02 323.616 415.251 326.129C406.39 334.171 394.013 334.403 382.638 334.76C375.863 334.974 369.014 335.501 362.237 335.277C356.75 335.096 351.393 333.931 347.329 330.08C344.617 327.511 348.746 323.45 351.454 326.016Z" fill="#E02499"/>
<path d="M459.504 425.709C388.914 423.41 318.906 424.56 248.316 424.56C230.23 424.56 213.312 423.41 194.643 426.858C185.287 428.952 175.624 432.272 168.812 438.37C168.848 444.042 169.941 450.009 171.268 455.689C176.14 476.527 201.438 586.341 201.438 586.341C202.278 589.988 209.686 591.569 209.686 591.569H323.177H333.269H446.759C446.759 591.569 454.167 589.99 455.007 586.341C455.007 586.341 480.305 476.527 485.177 455.689C486.437 450.296 487.486 444.646 487.62 439.233C480.194 430.68 470.354 425.709 459.504 425.709Z" fill="#E02499"/>
<path d="M449.706 410.185C416.51 410.185 356.928 410.185 333.268 410.185C333.268 410.185 329.5 410.185 323.175 410.185C299.514 410.185 239.933 410.185 206.737 410.185C176.139 410.185 168.713 423.235 168.812 438.368C175.624 432.271 185.287 428.952 194.643 426.857C213.312 423.409 230.23 424.558 248.316 424.558C318.906 424.558 388.914 423.409 459.504 425.707C470.354 425.707 480.194 430.679 487.62 439.231C488.005 423.736 480.886 410.185 449.706 410.185Z" fill="#FF52D8"/>
<path d="M335.507 466.689C334.916 466.564 334.381 466.605 333.913 466.762C333.694 466.713 333.458 466.684 333.204 466.683C319.194 466.655 303.452 469.748 295.974 482.762C288.78 495.285 291.5 510.978 300.526 521.825C309.739 532.896 325.013 537.225 338.972 533.698C354.265 529.833 364.827 517.161 364.572 501.47C364.299 484.701 352.119 470.217 335.507 466.689Z" fill="#FF95E6"/>
<path d="M598.409 122.984C598.197 118.79 597.795 114.603 597.195 110.444C596.695 106.991 595.934 103.48 594.113 100.441C590.748 94.8247 584.457 92.3245 578.174 91.4256C570.421 90.3172 562.42 90.5768 554.606 90.4055C545.66 90.2104 536.712 90.0575 527.763 89.9719C509.873 89.8005 491.977 89.902 474.094 90.4872C465.157 90.7798 456.224 91.1923 447.3 91.7525C439.657 92.2322 431.703 92.339 424.211 94.0471C417.913 95.4824 412.077 98.73 409.081 104.587C405.667 111.263 405.42 119.479 405.062 126.799C404.85 131.107 404.836 135.418 404.983 139.726C404.999 140.18 405.122 140.563 405.32 140.877C399.972 148.051 395.177 155.59 390.954 163.458C389.988 165.259 391.576 167.27 393.58 166.823C397.921 165.857 402.26 164.892 406.6 163.927C408.696 163.461 410.79 162.992 412.886 162.529C415.276 162.002 417.307 161.554 419.48 162.928C420.972 163.872 422.203 165.102 423.798 165.902C425.427 166.719 427.18 167.27 428.976 167.593C432.784 168.277 436.684 168.211 440.539 168.286C458.441 168.633 476.345 168.979 494.247 169.325C511.996 169.667 529.745 170.011 547.493 170.355C560.448 170.606 576.473 172.479 587.545 164.283C593.163 160.125 596.115 153.901 597.332 147.205C598.775 139.281 598.816 131 598.409 122.984Z" fill="#A4A4FC"/>
<path d="M463.4 129.351C458.515 129.515 453.63 129.631 448.743 129.699C453.54 125.066 458.336 120.434 463.132 115.802C465.273 113.734 461.983 110.496 459.843 112.562C455.235 117.013 450.626 121.464 446.018 125.915C446.19 120.213 446.447 114.513 446.795 108.817C446.976 105.871 442.324 105.881 442.144 108.817C441.827 113.995 441.585 119.176 441.414 124.36C437.912 120.344 434.471 116.279 431.098 112.156C429.219 109.861 425.947 113.12 427.809 115.396C431.791 120.264 435.871 125.05 440.029 129.769C434.917 129.782 429.805 129.745 424.693 129.653C421.698 129.6 421.698 134.182 424.693 134.234C428.889 134.309 433.086 134.345 437.282 134.35L427.267 144.023C425.126 146.091 428.416 149.329 430.556 147.263C434.084 143.854 437.614 140.446 441.142 137.038C441.093 141.953 441.103 146.869 441.186 151.785C441.236 154.731 445.887 154.74 445.839 151.785C445.752 146.592 445.741 141.399 445.801 136.207C449.806 140.604 453.88 144.94 458.038 149.199C460.118 151.329 463.404 148.085 461.327 145.959C457.574 142.116 453.888 138.211 450.262 134.254C454.643 134.183 459.022 134.079 463.4 133.931C466.385 133.834 466.4 129.251 463.4 129.351Z" fill="#42319C"/>
<path d="M514.002 129.351C509.117 129.515 504.232 129.631 499.345 129.699C504.142 125.066 508.937 120.434 513.734 115.802C515.875 113.734 512.585 110.496 510.445 112.562C505.837 117.013 501.228 121.464 496.62 125.915C496.792 120.213 497.049 114.513 497.399 108.817C497.579 105.871 492.927 105.881 492.748 108.817C492.431 113.995 492.188 119.176 492.017 124.36C488.517 120.344 485.074 116.279 481.701 112.156C479.823 109.861 476.55 113.12 478.412 115.396C482.394 120.264 486.474 125.05 490.632 129.769C485.52 129.782 480.409 129.745 475.296 129.653C472.302 129.6 472.302 134.182 475.296 134.234C479.492 134.309 483.688 134.345 487.885 134.35L477.87 144.023C475.73 146.091 479.02 149.329 481.159 147.263C484.688 143.854 488.217 140.446 491.746 137.038C491.696 141.953 491.707 146.869 491.79 151.785C491.839 154.731 496.49 154.74 496.441 151.785C496.354 146.592 496.343 141.399 496.403 136.207C500.408 140.604 504.482 144.94 508.64 149.199C510.72 151.329 514.006 148.085 511.929 145.959C508.176 142.116 504.49 138.211 500.863 134.254C505.243 134.183 509.623 134.079 514 133.931C516.987 133.834 517 129.251 514.002 129.351Z" fill="#42319C"/>
<path d="M568.05 129.351C563.165 129.515 558.28 129.631 553.394 129.699C558.19 125.066 562.986 120.434 567.783 115.802C569.923 113.734 566.633 110.496 564.494 112.562C559.886 117.013 555.276 121.464 550.668 125.915C550.841 120.213 551.098 114.513 551.447 108.817C551.628 105.871 546.975 105.881 546.796 108.817C546.479 113.995 546.237 119.176 546.065 124.36C542.564 120.344 539.123 116.279 535.749 112.156C533.871 109.861 530.598 113.12 532.461 115.396C536.443 120.264 540.522 125.05 544.681 129.769C539.568 129.782 534.457 129.745 529.344 129.653C526.35 129.6 526.35 134.182 529.344 134.234C533.54 134.309 537.736 134.345 541.934 134.35L531.919 144.023C529.778 146.091 533.068 149.329 535.208 147.263C538.736 143.854 542.266 140.446 545.794 137.038C545.744 141.953 545.755 146.869 545.838 151.785C545.887 154.731 550.538 154.74 550.489 151.785C550.402 146.592 550.391 141.399 550.451 136.207C554.456 140.604 558.53 144.94 562.689 149.199C564.768 151.329 568.054 148.085 565.978 145.959C562.224 142.116 558.538 138.211 554.911 134.254C559.292 134.183 563.671 134.079 568.049 133.931C571.035 133.834 571.049 129.251 568.05 129.351Z" fill="#42319C"/>
<path d="M249.606 90.2104C248.91 83.08 246.761 75.8258 240.198 71.8942C239.558 71.5106 238.932 71.4197 238.368 71.5264C214.937 69.2674 191.419 67.9243 167.879 67.5461C156.113 67.3576 144.341 67.4037 132.576 67.6897C121.449 67.9599 110.045 67.9033 98.9936 69.2845C90.7582 70.3152 81.2972 73.3334 78.9182 82.1508C78.8995 82.2181 78.8888 82.284 78.8754 82.3499C78.6024 82.7334 78.4205 83.2079 78.383 83.7786C76.7092 109.776 76.8751 135.855 78.8807 161.829C78.941 162.609 79.2701 163.213 79.7371 163.643C80.5987 167.797 82.7743 171.737 85.6711 174.951C91.5864 181.516 100.398 184.105 108.97 185.134C119.434 186.39 130.197 186.044 140.72 186.145C151.878 186.253 163.038 186.246 174.196 186.127C187 185.989 199.802 185.698 212.6 185.265C212.891 185.254 213.156 185.205 213.398 185.13C218.819 187.069 224.24 189.006 229.661 190.945C233.24 192.225 239.133 195.2 242.019 191.051C244.207 187.908 242.047 182.884 240.514 179.548C248.78 170.154 248.415 154.446 249.015 142.742C249.48 133.695 249.773 124.641 249.895 115.583C250.01 107.186 250.422 98.5823 249.606 90.2104Z" fill="#E02499"/>
<path d="M225.78 103.904C184.374 104.623 142.969 105.341 101.563 106.059C98.0279 106.121 98.0172 111.538 101.563 111.476C142.969 110.758 184.374 110.04 225.78 109.321C229.315 109.259 229.326 103.842 225.78 103.904Z" fill="#FF95E6"/>
<path d="M225.78 121.788C184.374 122.507 142.969 123.225 101.563 123.943C98.0279 124.005 98.0172 129.422 101.563 129.36C142.969 128.642 184.374 127.924 225.78 127.205C229.315 127.145 229.326 121.728 225.78 121.788Z" fill="#FF95E6"/>
<path d="M225.78 139.674C184.374 140.392 142.969 141.11 101.563 141.829C98.0279 141.891 98.0172 147.307 101.563 147.246C142.969 146.527 184.374 145.809 225.78 145.091C229.315 145.03 229.326 139.612 225.78 139.674Z" fill="#FF95E6"/>
<path d="M134.99 236.928C133.996 234.085 132.818 231.289 131.42 228.615C125.979 218.198 116.587 210.626 104.601 209.14C93.2886 207.739 82.0735 211.73 74.1766 219.815C65.7405 228.452 62.2938 240.07 63.0057 251.878C63.474 259.653 65.212 267.393 67.1508 274.923C69.2421 283.048 71.8779 291.025 74.9901 298.825C75.7314 300.682 78.1558 300.573 79.0295 299.384C82.2742 299.857 86.1169 299.881 88.6618 298.275C92.0162 296.16 89.6131 291.18 88.8665 288.318C86.5879 279.583 84.0216 270.867 82.1524 262.038C80.5067 254.261 79.8671 245.766 83.4945 238.408C86.4153 232.483 93.5361 226.328 100.676 229.317C104.869 231.073 107.789 235.83 110.296 239.362C113.24 243.511 115.833 247.882 118.115 252.415C118.554 253.288 119.705 253.557 120.584 253.359C124.207 252.543 127.76 251.476 131.205 250.096C133.607 249.134 136.451 248.096 136.938 245.249C137.389 242.62 135.848 239.378 134.99 236.928Z" fill="#A4A4FC"/>
<path d="M155.563 298.667C153.398 293.663 151.253 287.924 147.086 284.158C143.155 280.606 137.9 279.855 132.77 280.481C126.614 281.233 120.509 282.989 114.555 284.647C107.752 286.54 101.04 288.726 94.4206 291.165C94.1236 291.097 93.7971 291.087 93.4452 291.155C85.2459 292.75 75.7234 295.134 70.5266 302.159C67.7221 305.951 66.9301 310.547 67.3836 315.151C67.9429 320.826 69.4375 326.497 70.9427 331.987C73.8943 342.755 77.527 354.19 84.0564 363.432C89.5208 371.167 97.3802 376.893 106.472 379.82C125.783 386.038 147.415 377.256 157.192 359.843C167.93 340.715 163.86 317.847 155.563 298.667Z" fill="#FF52D8"/>
<path d="M129.332 320.435C130.035 312.464 124.799 302.927 116.255 302.136C115.941 301.959 115.55 301.867 115.081 301.904C113.974 301.991 112.885 302.178 111.821 302.453C103.502 304.254 94.9183 312.147 97.209 320.515C97.2786 328.257 102.953 335.063 111.229 335.895C111.317 335.904 111.404 335.907 111.492 335.915C110.423 339.845 109.527 343.816 108.852 347.832C108.498 349.941 108.207 352.059 107.958 354.184C107.758 355.897 107.363 357.775 109.002 358.946C110.459 359.987 112.51 359.506 114.14 359.295C116.392 359.003 118.633 358.636 120.851 358.164C125.593 357.156 130.204 355.683 134.67 353.826C135.957 353.291 136.735 351.944 135.928 350.634C131.992 344.233 127.77 338.013 123.279 331.978C126.645 329.097 128.934 324.937 129.332 320.435Z" fill="#210C65"/>
<path d="M140.829 416.816C136.117 423.31 131.294 429.722 126.388 436.071C117.168 428.691 104.87 425.137 93.0878 428.072C73.747 427.746 55.2305 439.943 48.8 458.065C42.1421 476.83 49.0984 498.498 65.6374 509.84C82.8816 521.667 105.526 520.124 121.779 507.46C137.354 495.324 145.749 473.537 139.466 454.528C137.773 449.409 134.946 444.734 131.341 440.739C136.577 433.974 141.72 427.139 146.743 420.218C149.307 416.683 143.373 413.311 140.829 416.816ZM130.972 451.838C138.764 466.638 133.764 485.784 122.624 497.553C110.305 510.565 91.2347 515.313 74.7251 507.294C59.0826 499.697 50.5501 482.641 53.8055 465.72C57.1411 448.386 72.6874 435.968 90.1416 434.896C90.8373 435.343 91.7405 435.503 92.7961 435.167C93.1668 435.049 93.5387 434.945 93.9107 434.844C94.1676 434.853 94.4245 434.853 94.6827 434.867C95.6207 434.916 96.3552 434.647 96.8931 434.195C105.935 432.739 115.208 435.691 122.274 441.374C111.77 454.735 100.842 467.769 89.5127 480.465C86.4688 475.591 83.5278 470.658 80.7006 465.657C78.5558 461.865 72.6405 465.262 74.7893 469.06C78.3805 475.409 82.1457 481.655 86.0847 487.801C87.198 489.537 89.9422 490.167 91.4608 488.484C103.832 474.765 115.731 460.64 127.143 446.142C128.612 447.901 129.904 449.808 130.972 451.838Z" fill="#A4A4FC"/>
<path d="M602.22 446.163C601.55 431.93 599.703 417.748 596.705 403.809C594.396 393.072 591.055 377.334 577.914 375.294C567.252 370.97 557.183 380.115 549.717 386.446C539.73 394.914 530.343 404.09 521.657 413.851C513.32 423.222 504.714 433.248 498.486 444.14C496.108 448.301 494.186 453.109 494.931 457.972C495.761 463.388 499.78 466.977 504.43 469.493C510.425 472.738 516.809 475.386 522.988 478.275C529.357 481.251 535.724 484.228 542.093 487.204C548.439 490.17 554.759 493.2 561.138 496.095C565.869 498.244 570.854 500.205 576.061 500.835C605.14 504.35 603.082 464.44 602.22 446.163ZM580.689 495.326C570.998 496.22 560.859 489.729 552.485 485.816C541.126 480.507 529.765 475.198 518.405 469.888C513.641 467.661 508.006 465.81 503.901 462.461C499.764 459.084 500.009 454.374 501.953 449.861C503.887 445.372 507.023 441.39 509.901 437.463C513.378 432.715 517.012 428.08 520.792 423.563C528.974 413.785 537.849 404.58 547.354 396.042C551.893 391.965 556.512 387.806 561.498 384.262C565.464 381.444 570.479 378.665 575.403 380.408C575.736 380.611 576.136 380.753 576.608 380.808C587.025 382.024 589.305 396.627 591.028 404.645C593.383 415.597 595.03 426.699 595.95 437.857C596.874 449.06 597.353 460.518 596.392 471.735C595.582 481.222 592.275 494.255 580.689 495.326Z" fill="#A4A4FC"/>
<path d="M563.567 432.556C567.292 423.446 570.97 414.317 574.607 405.173C575.056 404.042 574.759 403.056 574.117 402.368C573.867 400.024 570.653 398.33 569.097 400.795C560.262 414.792 553.229 429.766 548.241 445.503C547.556 447.665 549.083 449.449 551.329 449.347C558.94 448.999 561.338 438.008 563.567 432.556Z" fill="#A4A4FC"/>
<path d="M552.039 461.242C551.783 460.118 551.188 459.096 550.359 458.32C550.188 458.068 549.973 457.848 549.704 457.677C546.328 455.538 541.348 456.749 540.12 460.781C538.933 464.681 542.313 469.021 546.51 468.628C550.061 468.293 552.827 464.711 552.039 461.242Z" fill="#A4A4FC"/>
</g>
<defs>
<clipPath id="clip0_30_101">
<rect width="669" height="659" fill="white"/>
</clipPath>
</defs>
</svg>
