<?xml version="1.0" encoding="utf-8"?>
<!-- Generator: Adobe Illustrator 27.5.0, SVG Export Plug-In . SVG Version: 6.00 Build 0)  -->
<svg version="1.1" xmlns="http://www.w3.org/2000/svg" xmlns:xlink="http://www.w3.org/1999/xlink" x="0px" y="0px"
	 viewBox="0 0 500 500" style="enable-background:new 0 0 500 500;" xml:space="preserve">
<g id="Background_Simple">
	<g>
		<g>
			<path style="fill:#FFE6DE;" d="M438.022,377.534c-3.994,4.077-8.166,8.035-12.516,11.839
				c-41.436,36.337-98.23,59.824-160.823,64.163c-92.892,6.443-182.837-27.053-228.79-89.79
				c-5.622-7.679-10.591-15.809-14.822-24.343c-9.129-18.424-14.834-38.785-16.368-60.894
				C-3.345,162.389,97.833,71.399,224.447,46.508c139.095-27.351,264.438,27.755,269.644,191.776
				C495.802,292.165,474.347,340.388,438.022,377.534z"/>
		</g>
		<g>
			<g>
				<g>
					<path style="fill:#FFFFFF;" d="M397.968,327.805c-2.375-0.371-9.836,0.295-9.836,0.295l-1.679-2.128
						c0,0,5.018-8.465,3.79-10.089c-1.227-1.625-10.044-6.781-11.516-6.144c-1.472,0.637-5.887,6.86-5.887,6.86l-3.091-0.41
						c0,0-1.203-8.569-4.685-8.402c-3.482,0.168-10.313,2.425-11.679,3.307c-1.366,0.883,0.686,9.259,0.686,9.259l-2.254,1.803
						l-0.97-0.464c0,0-6.696-4.185-8.609-2.75c-1.913,1.435-6.457,10.761-6.098,11.957c0.359,1.196,7.344,6.218,7.344,6.218
						l-0.528,2.391c0,0-7.892,2.391-8.25,4.663c-0.359,2.272,1.076,11.598,3.467,11.838c2.391,0.239,9.805-0.837,9.805-0.837
						l1.793,2.033c0,0-4.544,8.729-3.228,10.283c1.315,1.554,10.402,6.218,11.837,5.5c1.435-0.717,5.5-7.174,5.5-7.174l3.109,0.239
						c0,0,1.674,8.49,5.141,8.131c3.468-0.359,10.164-2.989,11.479-3.946c1.315-0.956-1.196-9.207-1.196-9.207l2.272-2.033
						c0,0,6.696,4.065,9.207,2.391c2.511-1.674,6.577-9.566,5.979-10.761c-0.598-1.196-6.696-6.218-6.696-6.218l0.032-0.638
						c2.12-0.591,7.19-2.181,7.571-3.956C401.261,337.567,400.343,328.176,397.968,327.805z M367.776,351.562
						c-5.967,0-10.804-4.837-10.804-10.804c0-5.967,4.837-10.804,10.804-10.804s10.804,4.837,10.804,10.804
						C378.58,346.725,373.743,351.562,367.776,351.562z"/>
				</g>
			</g>
		</g>
		<g>
			<g>
				
					<ellipse transform="matrix(0.8159 -0.5782 0.5782 0.8159 -18.4292 249.3266)" style="fill:#FFE6DE;" cx="382.307" cy="153.603" rx="39.378" ry="39.378"/>
			</g>
			<g style="opacity:0.5;">
				<g>
					<path style="fill:#FFFFFF;" d="M344.294,143.717c1.604,0.348,2.729,1.799,3.447,3.275c0.719,1.476,1.192,3.096,2.2,4.392
						c1.999,2.569,5.875,3.242,8.86,1.945c2.985-1.297,5.051-4.25,5.804-7.417c0.753-3.167,0.322-6.518-0.644-9.626
						c-0.908-2.921-2.286-5.717-2.741-8.742c-0.454-3.025,0.247-6.492,2.726-8.283c-9.631,4.815-17.057,13.849-19.919,24.229"/>
				</g>
			</g>
			<g style="opacity:0.5;">
				<g>
					<path style="fill:#FFFFFF;" d="M398.925,117.71c-2.571-0.441-5.027,1.611-6.018,4.024c-0.991,2.413-0.898,5.11-0.933,7.718
						c-0.035,2.608-0.265,5.364-1.763,7.5c-1.429,2.038-3.832,3.235-5.24,5.287c-2.225,3.241-1.408,7.595-0.503,11.42
						c0.559,2.363,1.315,4.996,3.444,6.164c2.359,1.293,5.34,0.157,7.472-1.485c2.677-2.063,4.734-4.92,5.842-8.113
						c0.48-1.383,0.823-2.891,1.842-3.942c1.378-1.421,3.626-1.594,5.559-1.167c1.932,0.428,3.725,1.35,5.648,1.816
						c1.807,0.439,4.134,0.225,4.937-1.452c0.466-0.972,0.247-2.122-0.025-3.165c-2.801-10.751-10.509-20.119-20.52-24.938"/>
				</g>
			</g>
			<g style="opacity:0.5;">
				<g>
					<path style="fill:#FFFFFF;" d="M381.694,193.63c4.448-0.132,2.967-6.769,2.487-10.212c-0.479-3.443-2.657-6.885-6.014-7.792
						c-2.135-0.577-4.389-0.076-6.592,0.11c-2.204,0.186-4.687-0.065-6.156-1.718c-2.759-3.105-0.297-9.11-3.682-11.516
						c-2.583-1.837-6.148,0.264-8.219,2.663c-2.071,2.4-4.101,5.412-7.252,5.749C346.267,170.914,352.9,194.48,381.694,193.63z"/>
				</g>
			</g>
			<g>
				<g>
					<g>
						<path style="fill:#FFFFFF;" d="M378.354,193.438c-14.268-2.213-23.13-21.719-19.754-43.482
							c3.376-21.763,17.731-37.667,31.999-35.454l-0.182,1.171c-13.622-2.113-27.371,13.348-30.646,34.465
							c-3.276,21.117,5.142,40.016,18.764,42.129L378.354,193.438z"/>
					</g>
				</g>
				<g>
					<g>
						<path style="fill:#FFFFFF;" d="M376.306,193.121l0.182-1.171c10.738,1.666,22.141-14.172,25.419-35.306
							c3.279-21.134-2.79-39.683-13.528-41.348l0.182-1.171c11.383,1.766,17.896,20.921,14.517,42.701
							C399.699,178.604,387.689,194.886,376.306,193.121z"/>
					</g>
				</g>
				<g>
					<g>
						<g>
							<path style="fill:#FFFFFF;" d="M387.621,115.348c-3.054,19.686-6.108,39.373-9.162,59.059
								c-0.877,5.653-1.754,11.305-2.631,16.958c-0.146,0.942,1.318,1.171,1.464,0.227c3.054-19.686,6.108-39.373,9.162-59.059
								c0.877-5.653,1.754-11.305,2.631-16.958C389.231,114.633,387.768,114.405,387.621,115.348L387.621,115.348z"/>
						</g>
					</g>
				</g>
				<g>
					<g>
						<g>
							<path style="fill:#FFFFFF;" d="M344.212,150.286c19.906,3.088,39.813,6.176,59.719,9.264
								c5.66,0.878,11.319,1.756,16.979,2.634c0.942,0.146,1.17-1.317,0.227-1.464c-19.906-3.088-39.813-6.176-59.719-9.264
								c-5.66-0.878-11.319-1.756-16.979-2.634C343.497,148.676,343.268,150.14,344.212,150.286L344.212,150.286z"/>
						</g>
					</g>
				</g>
				<g>
					<g>
						<g>
							<path style="fill:#FFFFFF;" d="M352.589,129.403c22.046,3.42,44.092,6.84,66.138,10.26c0.942,0.146,1.171-1.317,0.227-1.464
								c-22.046-3.42-44.092-6.84-66.139-10.26C351.874,127.793,351.645,129.257,352.589,129.403L352.589,129.403z"/>
						</g>
					</g>
				</g>
				<g>
					<g>
						<g>
							<path style="fill:#FFFFFF;" d="M348.325,171.94c20.598,3.195,41.195,6.391,61.793,9.586c0.942,0.146,1.171-1.317,0.227-1.464
								c-20.598-3.195-41.195-6.391-61.793-9.586C347.61,170.33,347.381,171.794,348.325,171.94L348.325,171.94z"/>
						</g>
					</g>
				</g>
			</g>
			<g style="opacity:0.5;">
				<g>
					<path style="fill:#FFFFFF;" d="M407.439,166.336c0,0-4.007,3.921-2.749,6.456c1.258,2.535,8.3,4.178,9.806-1.094
						c1.506-5.273,5.181-5,1.222-7.874C411.758,160.949,408.486,163.746,407.439,166.336z"/>
				</g>
			</g>
			<g>
				<path style="fill:#FFFFFF;" d="M382.392,193.545c-2.059,0-4.133-0.159-6.206-0.48c-10.542-1.635-19.814-7.277-26.111-15.887
					c-6.297-8.61-8.865-19.156-7.23-29.697c1.635-10.54,7.277-19.814,15.887-26.111c8.609-6.298,19.155-8.865,29.696-7.23
					c21.759,3.376,36.716,23.825,33.341,45.584l-0.549-0.085l0.549,0.085c-1.635,10.54-7.277,19.814-15.887,26.111
					C398.966,190.894,390.8,193.545,382.392,193.545z M382.225,114.772c-8.175,0-16.113,2.577-22.837,7.495
					c-8.37,6.122-13.856,15.137-15.445,25.384c-1.589,10.247,0.906,20.5,7.028,28.87c6.122,8.37,15.138,13.855,25.384,15.444
					c10.249,1.592,20.5-0.906,28.87-7.028c8.371-6.122,13.856-15.137,15.445-25.384c3.281-21.153-11.259-41.033-32.412-44.315
					C386.242,114.927,384.225,114.772,382.225,114.772z"/>
			</g>
		</g>
		<g>
			<g>
				<g>
					<g>
						<g>
							<path style="fill:#FFFFFF;" d="M105.643,270.372c-13.924,1.87-51.027,17.275-50.343,23.556
								c0.689,6.327,15.527,43.708,21.064,47.302c5.537,3.593,52.561-17.47,53.388-22.728
								C130.578,313.243,110.678,269.695,105.643,270.372z"/>
						</g>
					</g>
				</g>
				<g>
					<g>
						<g>
							<path style="fill:#FFE6DE;" d="M104.715,289.268c0.004,5.616-4.545,10.171-10.161,10.175
								c-5.616,0.004-10.171-4.545-10.175-10.161c-0.004-5.616,4.545-10.171,10.161-10.175
								C100.156,279.104,104.711,283.653,104.715,289.268z"/>
						</g>
					</g>
				</g>
				<g>
					<g>
						<g>
							<path style="fill:#FFE6DE;" d="M129.751,318.501c0.35-2.227-3.018-11.321-7.399-21.015
								c-7.258-1.626-15.437,0.737-20.394,6.346c-1.874,2.12-3.654,4.832-6.465,5.163c-2.167,0.256-4.168-1.033-6.129-1.989
								c-5.363-2.612-11.813-2.894-17.383-0.759c-3.956,1.516-7.422,4.24-9.905,7.669c4.872,12.063,11.11,25.251,14.287,27.313
								C81.9,344.822,128.925,323.759,129.751,318.501z"/>
						</g>
					</g>
				</g>
				<g>
					<g>
						<path style="fill:#FFE6DE;" d="M130.127,312.079c-3.197-9.746-7.712-19.238-12.502-28.287
							c-1.982-3.743-6.523-15.147-11.982-15.177c-0.133-0.001-0.231,0.047-0.349,0.069c-0.042,0.004-0.076-0.012-0.119-0.006
							c-9.814,1.454-19.45,5.306-28.518,9.189c-6.764,2.896-17.801,6.576-22.078,13.131c-2.995,4.59,1.765,12.905,3.42,17.295
							c3.537,9.38,7.358,18.885,12.308,27.622c2.805,4.951,4.891,8.122,10.882,7.206c8.052-1.232,15.955-4.732,23.381-7.925
							c7.923-3.407,16.461-6.994,23.377-12.248C132.265,319.668,131.733,316.975,130.127,312.079z M126.17,319.914
							c-5.447,4.393-12.523,7.358-18.834,10.237c-7.202,3.285-14.623,6.379-22.266,8.488c-1.917,0.529-5.263,1.87-7.263,1.223
							c-1.865-0.603-3.055-3.296-3.985-4.882c-4.465-7.607-7.869-15.938-11.087-24.129c-1.276-3.248-2.508-6.516-3.625-9.822
							c-0.576-1.703-2.51-5.518-2.029-7.4c0.647-2.53,5.426-4.741,7.433-5.914c4.728-2.764,9.748-5.068,14.794-7.185
							c8.408-3.527,17.323-6.983,26.384-8.39c3.028,0.136,8.243,12.161,9.443,14.463c3.731,7.156,7.145,14.526,10.033,22.064
							C126.624,312.469,129.649,317.109,126.17,319.914z"/>
					</g>
				</g>
			</g>
			<g>
				<g>
					<g>
						<path style="fill:#FFFFFF;" d="M130.905,311.902c-3.081-9.313-7.21-18.226-11.747-26.911
							c-2.704-5.175-4.854-11.53-9.419-15.402c-2.436-2.067-4.525-1.793-7.514-1.217c-4.65,0.896-9.197,2.271-13.651,3.871
							c-4.154,1.493-8.227,3.19-12.289,4.915c-3.616,1.536-7.296,2.921-10.836,4.631c-5.495,2.655-13.246,6.867-12.576,14.003
							c0.29,3.092,1.513,6.047,2.726,8.875c1.445,3.368,2.732,6.786,4.076,10.195c1.855,4.703,3.817,9.367,6.012,13.923
							c1.804,3.743,3.665,7.616,6.076,11.018c1.74,2.456,4.021,4.15,7.115,4.266c4.007,0.15,8.302-1.32,12.056-2.573
							c4.772-1.593,9.387-3.608,14.005-5.594c4.979-2.142,9.979-4.261,14.763-6.819c2.473-1.322,4.883-2.762,7.177-4.377
							c1.555-1.095,3.19-2.239,4.226-3.875C132.876,318.038,131.847,314.793,130.905,311.902c-0.316-0.971-1.875-0.623-1.557,0.354
							c0.838,2.574,1.958,5.576,0.209,8.021c-0.996,1.393-2.518,2.396-3.907,3.357c-1.977,1.367-4.045,2.601-6.156,3.749
							c-7.476,4.064-15.487,7.357-23.383,10.513c-3.952,1.579-7.99,2.989-12.154,3.897c-3.367,0.734-6.944,1.369-9.602-1.329
							c-2.464-2.5-4.049-6.089-5.634-9.169c-2.035-3.954-3.867-8.011-5.58-12.114c-1.629-3.9-3.071-7.871-4.643-11.793
							c-1.074-2.681-2.373-5.268-3.234-8.033c-0.777-2.496-1.487-5.565-0.004-7.941c1.89-3.028,5.177-5.139,8.235-6.823
							c3.187-1.755,6.555-3.151,9.919-4.525c3.558-1.452,7.078-2.995,10.649-4.415c4.083-1.624,8.225-3.113,12.461-4.288
							c1.818-0.504,3.653-0.953,5.503-1.325c1.622-0.326,3.538-0.984,5.133-0.268c2.816,1.263,4.665,4.597,6.1,7.16
							c1.418,2.532,2.585,5.189,3.935,7.756c4.68,8.897,8.993,18.013,12.154,27.57C129.669,313.225,131.228,312.877,130.905,311.902
							z"/>
					</g>
				</g>
			</g>
		</g>
		<g>
			<g>
				<g>
					<g>
						<g>
							<path style="fill:#FFFFFF;" d="M454.596,261.265c-8.56-6.097-36.701-16.654-39.538-12.874
								c-2.858,3.808-13.867,31.81-12.68,36.603c1.187,4.793,37.638,17.331,40.778,14.882
								C446.295,297.427,457.691,263.469,454.596,261.265z"/>
						</g>
					</g>
				</g>
				<g>
					<g>
						<g>
							<path style="fill:#FFE6DE;" d="M444.428,271.111c-2.869,3.069-7.683,3.231-10.752,0.362
								c-3.069-2.869-3.231-7.683-0.362-10.752c2.869-3.069,7.682-3.231,10.751-0.362
								C447.134,263.228,447.297,268.042,444.428,271.111z"/>
						</g>
					</g>
				</g>
				<g>
					<g>
						<g>
							<path style="fill:#FFE6DE;" d="M443.156,299.876c1.329-1.037,4.14-7.726,6.703-15.26c-3.133-4.599-8.807-7.49-14.383-6.961
								c-2.108,0.2-4.466,0.771-6.17-0.486c-1.314-0.968-1.748-2.695-2.33-4.22c-1.593-4.169-4.972-7.62-9.106-9.302
								c-2.936-1.194-6.221-1.479-9.331-0.876c-3.507,9.079-6.843,19.47-6.161,22.221
								C403.565,289.786,440.016,302.325,443.156,299.876z"/>
						</g>
					</g>
				</g>
				<g>
					<g>
						<path style="fill:#FFE6DE;" d="M446.644,296.56c3.237-6.957,5.624-14.449,7.634-21.841c0.831-3.057,4.181-11.607,1.216-14.415
							c-0.072-0.068-0.15-0.093-0.225-0.141c-0.025-0.019-0.035-0.045-0.062-0.064c-6.103-4.224-13.335-7.046-20.273-9.562
							c-5.175-1.876-13.083-5.51-18.771-4.116c-3.983,0.975-5.634,7.95-6.975,11.195c-2.864,6.931-5.637,14.076-7.4,21.378
							c-1,4.138-1.482,6.936,2.259,9.499c5.027,3.444,11.133,5.573,16.821,7.625c6.069,2.19,12.565,4.596,19.029,5.263
							C443.932,301.798,445.018,300.056,446.644,296.56z M440.477,298.817c-5.221-0.386-10.601-2.384-15.52-4.039
							c-5.612-1.888-11.248-3.992-16.5-6.748c-1.318-0.691-3.83-1.669-4.592-3.045c-0.71-1.283,0.017-3.362,0.319-4.704
							c1.451-6.437,3.851-12.728,6.281-18.846c0.964-2.426,1.962-4.841,3.042-7.218c0.556-1.225,1.451-4.297,2.675-5.079
							c1.647-1.051,5.388,0.185,7.083,0.57c3.995,0.908,7.915,2.216,11.753,3.64c6.395,2.373,13.031,5.043,18.699,8.907
							c1.584,1.622-1.716,10.856-2.237,12.727c-1.621,5.815-3.524,11.586-5.801,17.18
							C444.532,294.983,443.811,299.063,440.477,298.817z"/>
					</g>
				</g>
			</g>
			<g>
				<g>
					<g>
						<path style="fill:#FFFFFF;" d="M447.244,296.911c3.051-6.608,5.345-13.523,7.297-20.527c1.186-4.254,3.265-8.871,2.798-13.367
							c-0.247-2.377-1.477-3.37-3.398-4.588c-2.896-1.835-5.968-3.375-9.106-4.75c-3.115-1.364-6.296-2.565-9.49-3.729
							c-2.786-1.016-5.528-2.154-8.358-3.045c-4.282-1.348-10.746-3.102-14.095,0.964c-1.496,1.816-2.368,4.087-3.167,6.272
							c-0.942,2.58-1.971,5.115-2.985,7.669c-1.363,3.434-2.651,6.899-3.772,10.42c-0.994,3.125-2.029,6.365-2.47,9.625
							c-0.293,2.168,0.038,4.213,1.561,5.865c2.061,2.235,5.288,3.661,8.002,4.911c3.456,1.592,7.046,2.866,10.621,4.156
							c3.926,1.416,7.853,2.859,11.895,3.916c2.013,0.526,4.05,0.953,6.113,1.228c1.361,0.182,2.784,0.359,4.13-0.02
							C445.189,301.245,446.28,298.969,447.244,296.911c0.377-0.805-0.82-1.511-1.2-0.701c-0.837,1.786-1.735,3.979-3.877,4.432
							c-1.336,0.282-2.807,0.009-4.128-0.196c-1.716-0.266-3.414-0.642-5.092-1.081c-6.203-1.623-12.313-3.932-18.277-6.277
							c-2.977-1.171-5.913-2.485-8.651-4.148c-2.227-1.353-4.28-2.844-4.25-5.677c0.028-2.72,1.02-5.559,1.772-8.142
							c0.934-3.209,2.027-6.369,3.206-9.496c1.08-2.865,2.309-5.672,3.391-8.535c0.744-1.968,1.359-3.987,2.296-5.877
							c0.916-1.849,2.129-3.752,4.28-4.202c2.702-0.565,5.588,0.021,8.204,0.734c5.341,1.457,10.612,3.653,15.753,5.696
							c2.911,1.157,5.784,2.417,8.557,3.877c1.367,0.719,2.709,1.486,4.013,2.313c0.937,0.595,1.994,1.111,2.424,2.188
							c0.867,2.172,0.134,4.97-0.413,7.132c-0.518,2.048-1.216,4.043-1.776,6.079c-1.985,7.222-4.286,14.373-7.43,21.182
							C445.672,297.016,446.869,297.723,447.244,296.911z"/>
					</g>
				</g>
			</g>
		</g>
		<g>
			<g>
				<path style="fill:#FFFFFF;" d="M29.725,264.871l1.631-4.966l1.852,4.966c0,0,3.7,0.629,3.743,0.974
					c0.042,0.337-3.542,1.394-3.542,1.394s-1.504,4.816-2.054,3.725c-0.55-1.091-1.083-3.505-1.083-3.505s-4.66-0.968-4.66-1.443
					C25.613,265.502,29.725,264.871,29.725,264.871z"/>
			</g>
		</g>
		<g>
			<g>
				<path style="fill:#FFFFFF;" d="M356.325,410.23l1.631-4.966l1.852,4.966c0,0,3.7,0.629,3.743,0.974
					c0.042,0.337-3.542,1.394-3.542,1.394s-1.504,4.816-2.054,3.725c-0.55-1.091-1.083-3.505-1.083-3.505s-4.66-0.968-4.66-1.443
					C352.213,410.861,356.325,410.23,356.325,410.23z"/>
			</g>
		</g>
		<g>
			<g>
				<path style="fill:#FFFFFF;" d="M87.391,365.711l2.021-6.156l2.296,6.156c0,0,4.586,0.78,4.64,1.208
					c0.052,0.418-4.39,1.727-4.39,1.727s-1.864,5.969-2.546,4.617c-0.682-1.352-1.343-4.344-1.343-4.344s-5.776-1.2-5.776-1.789
					C82.295,366.493,87.391,365.711,87.391,365.711z"/>
			</g>
		</g>
		<g>
			<g>
				<path style="fill:#FFFFFF;" d="M381.985,80.267l1.631-4.966l1.852,4.966c0,0,3.7,0.63,3.743,0.975
					c0.042,0.337-3.542,1.394-3.542,1.394s-1.504,4.816-2.054,3.725s-1.083-3.505-1.083-3.505s-4.66-0.968-4.66-1.443
					C377.873,80.897,381.985,80.267,381.985,80.267z"/>
			</g>
		</g>
		<g>
			<g>
				<path style="fill:#FFFFFF;" d="M446.972,191.003l3.023-9.205l3.433,9.205c0,0,6.858,1.167,6.938,1.806
					c0.078,0.625-6.564,2.583-6.564,2.583s-2.788,8.925-3.807,6.904c-1.019-2.021-2.008-6.496-2.008-6.496s-8.636-1.794-8.636-2.675
					C439.351,192.172,446.972,191.003,446.972,191.003z"/>
			</g>
		</g>
		<g>
			<g>
				<path style="fill:#FFFFFF;" d="M73.066,153.239l1.856-5.65l2.107,5.65c0,0,4.21,0.716,4.259,1.109
					c0.048,0.384-4.029,1.586-4.029,1.586s-1.711,5.479-2.337,4.238c-0.626-1.241-1.232-3.987-1.232-3.987s-5.301-1.101-5.301-1.642
					C68.388,153.956,73.066,153.239,73.066,153.239z"/>
			</g>
		</g>
		<g>
			<g>
				<path style="fill:#FFFFFF;" d="M149.014,267.111l2.759-8.402l3.133,8.402c0,0,6.26,1.065,6.333,1.648
					c0.071,0.571-5.992,2.358-5.992,2.358s-2.544,8.146-3.475,6.302c-0.93-1.845-1.833-5.929-1.833-5.929s-7.883-1.638-7.883-2.441
					C142.058,268.178,149.014,267.111,149.014,267.111z"/>
			</g>
		</g>
	</g>
	<g>
		<g>
			<path style="fill:#FFFFFF;" d="M337.536,85.644c-1.029-5.542-7.028-8.872-12.552-7.773c1.668-1.84,1.916-8.551,0.421-12.031
				c-1.495-3.48-3.314-5.829-6.482-7.563c-6.188-3.388-13.964-3.611-19.962,0.153c-5.999,3.765-9.155,9.537-8.403,17.162
				c-1.613-2.266-5.01-3.079-8.696-2.551c-3.387,0.486-6.44,2.699-8.49,5.652c-1.604,2.31-2.684,5.164-2.466,8.041
				c0.033,0.432,0.118,0.896,0.246,1.379c1.178,4.436,5.06,7.398,9.332,7.398l48.871-0.002c1.342,0.01,2.721,0.013,3.974-0.506
				C336.47,93.706,338.287,89.688,337.536,85.644z"/>
		</g>
		<g>
			<path style="fill:#FFE6DE;" d="M289.843,75.194c0.081,0.076,0.158,0.156,0.23,0.241c0.017,0.02,0.033,0.041,0.05,0.06
				c0.053,0.061-0.072-0.1-0.025-0.034c0.03,0.043,0.062,0.084,0.091,0.128c0.062,0.092,0.119,0.188,0.171,0.286
				c0.025,0.046,0.048,0.093,0.07,0.14c0.011,0.023,0.019,0.05,0.032,0.071c-0.029-0.048-0.046-0.112-0.01-0.022
				c0.078,0.201,0.136,0.41,0.172,0.623c0.004,0.026,0.007,0.052,0.012,0.077c-0.006-0.027-0.015-0.136-0.008-0.049
				c0.005,0.052,0.01,0.104,0.013,0.156c0.007,0.118,0.005,0.235-0.002,0.353c-0.019,0.327,0.301,0.64,0.625,0.625
				c0.355-0.016,0.605-0.275,0.625-0.625c0.062-1.076-0.382-2.174-1.163-2.915c-0.237-0.225-0.651-0.253-0.884,0
				C289.619,74.554,289.59,74.953,289.843,75.194L289.843,75.194z"/>
		</g>
		<g>
			<path style="fill:#FFE6DE;" d="M323.895,80.023c0.789-0.612,1.577-1.224,2.366-1.836c0.117-0.091,0.183-0.302,0.183-0.442
				c0-0.153-0.068-0.336-0.183-0.442c-0.119-0.109-0.275-0.19-0.442-0.183c-0.177,0.008-0.303,0.076-0.442,0.183
				c-0.789,0.612-1.577,1.224-2.366,1.836c-0.117,0.091-0.183,0.302-0.183,0.442c0,0.153,0.068,0.336,0.183,0.442
				c0.119,0.109,0.275,0.191,0.442,0.183C323.631,80.198,323.757,80.13,323.895,80.023L323.895,80.023z"/>
		</g>
	</g>
	<g>
		<g>
			<path style="fill:#FFFFFF;" d="M326.425,126.86c-0.407-2.191-2.778-3.507-4.961-3.072c0.659-0.727,0.757-3.38,0.166-4.755
				s-1.31-2.304-2.562-2.989c-2.446-1.339-5.519-1.427-7.89,0.061c-2.371,1.488-3.618,3.769-3.321,6.783
				c-0.638-0.896-1.98-1.217-3.437-1.008c-1.339,0.192-2.545,1.067-3.356,2.234c-0.634,0.913-1.061,2.041-0.975,3.178
				c0.013,0.171,0.047,0.354,0.097,0.545c0.466,1.753,2,2.924,3.689,2.924l19.316-0.001c0.53,0.004,1.075,0.005,1.571-0.2
				C326.004,130.046,326.722,128.459,326.425,126.86z"/>
		</g>
		<g>
			<path style="fill:#FFE6DE;" d="M307.308,122.997c0.045,0.043,0.087,0.088,0.125,0.137c-0.033-0.042-0.065-0.084-0.098-0.127
				c0.066,0.086,0.121,0.18,0.164,0.28c-0.021-0.05-0.042-0.1-0.063-0.149c0.044,0.105,0.074,0.215,0.09,0.328
				c-0.008-0.055-0.015-0.111-0.022-0.166c0.01,0.077,0.012,0.154,0.008,0.232c-0.009,0.154,0.076,0.335,0.183,0.442
				c0.108,0.108,0.286,0.19,0.442,0.183c0.162-0.007,0.329-0.06,0.442-0.183c0.032-0.042,0.065-0.084,0.098-0.127
				c0.056-0.097,0.085-0.203,0.085-0.315c0.008-0.144-0.012-0.286-0.035-0.429c-0.015-0.094-0.041-0.187-0.076-0.276
				c-0.053-0.132-0.107-0.263-0.186-0.382c-0.08-0.118-0.169-0.234-0.273-0.333c-0.118-0.112-0.277-0.183-0.442-0.183
				c-0.153,0-0.336,0.068-0.442,0.183c-0.109,0.119-0.19,0.276-0.183,0.442C307.132,122.718,307.186,122.882,307.308,122.997
				L307.308,122.997z"/>
		</g>
		<g>
			<path style="fill:#FFE6DE;" d="M321.301,124.906c0.312-0.242,0.623-0.484,0.935-0.726c0.061-0.057,0.104-0.124,0.129-0.201
				c0.039-0.074,0.057-0.155,0.054-0.241c0-0.153-0.068-0.336-0.183-0.442c-0.119-0.109-0.275-0.191-0.442-0.183
				c-0.055,0.007-0.111,0.015-0.166,0.022c-0.106,0.03-0.198,0.083-0.276,0.161c-0.312,0.242-0.623,0.484-0.935,0.726
				c-0.061,0.057-0.104,0.124-0.129,0.201c-0.039,0.075-0.057,0.155-0.054,0.241c0,0.153,0.068,0.336,0.183,0.442
				c0.119,0.109,0.275,0.19,0.442,0.183c0.055-0.007,0.111-0.015,0.166-0.022C321.131,125.037,321.223,124.983,321.301,124.906
				L321.301,124.906z"/>
		</g>
	</g>
	<g>
		<g>
			<path style="fill:#FFFFFF;" d="M445.939,225.602c-0.944-5.083-6.446-8.137-11.512-7.129c1.53-1.687,1.757-7.842,0.386-11.033
				c-1.371-3.192-3.039-5.346-5.945-6.937c-5.675-3.107-12.806-3.312-18.308,0.141c-5.501,3.452-8.396,8.746-7.707,15.739
				c-1.479-2.078-4.595-2.824-7.975-2.339c-3.106,0.445-5.906,2.476-7.786,5.184c-1.471,2.118-2.461,4.736-2.261,7.375
				c0.03,0.396,0.108,0.822,0.226,1.265c1.08,4.069,4.64,6.785,8.559,6.785l44.82-0.002c1.231,0.009,2.495,0.012,3.645-0.464
				C444.962,232.995,446.628,229.311,445.939,225.602z"/>
		</g>
		<g>
			<path style="fill:#FFE6DE;" d="M402.163,216.055c0.074,0.07,0.145,0.143,0.211,0.221c0.016,0.018,0.03,0.037,0.046,0.055
				c0.052,0.059-0.077-0.105-0.031-0.041c0.028,0.039,0.056,0.077,0.083,0.117c0.057,0.085,0.109,0.172,0.157,0.262
				c0.022,0.042,0.044,0.085,0.064,0.129c0.01,0.021,0.018,0.045,0.03,0.066c-0.023-0.041-0.051-0.126-0.015-0.033
				c0.072,0.184,0.125,0.376,0.158,0.571c0.004,0.021,0.013,0.049,0.011,0.071c0.001-0.019-0.017-0.148-0.009-0.059
				c0.004,0.048,0.009,0.095,0.012,0.143c0.006,0.108,0.005,0.216-0.001,0.324c-0.019,0.327,0.301,0.64,0.625,0.625
				c0.355-0.016,0.605-0.275,0.625-0.625c0.057-1-0.357-2.022-1.082-2.71c-0.237-0.225-0.651-0.253-0.884,0
				C401.939,215.415,401.91,215.814,402.163,216.055L402.163,216.055z"/>
		</g>
		<g>
			<path style="fill:#FFE6DE;" d="M433.466,220.483c0.723-0.561,1.447-1.122,2.17-1.684c0.117-0.091,0.183-0.302,0.183-0.442
				c0-0.153-0.068-0.336-0.183-0.442c-0.119-0.109-0.276-0.191-0.442-0.183c-0.177,0.008-0.303,0.076-0.442,0.183
				c-0.723,0.561-1.447,1.122-2.17,1.684c-0.117,0.091-0.183,0.302-0.183,0.442c0,0.153,0.068,0.336,0.183,0.442
				c0.119,0.109,0.275,0.191,0.442,0.183C433.201,220.658,433.327,220.591,433.466,220.483L433.466,220.483z"/>
		</g>
	</g>
	<g>
		<g>
			<path style="fill:#FFFFFF;" d="M157.581,221.399c-1.859-10.012-12.696-16.028-22.675-14.042
				c3.013-3.324,3.462-15.447,0.76-21.733c-2.701-6.286-5.987-10.53-11.71-13.663c-11.178-6.12-25.225-6.523-36.061,0.277
				c-10.836,6.8-16.538,17.228-15.18,31.001c-2.914-4.093-9.051-5.562-15.709-4.607c-6.118,0.877-11.633,4.876-15.337,10.211
				c-2.897,4.172-4.848,9.329-4.454,14.526c0.059,0.78,0.213,1.618,0.445,2.491c2.128,8.014,9.14,13.365,16.858,13.364l88.283-0.004
				c2.425,0.018,4.915,0.023,7.18-0.913C155.656,235.962,158.937,228.705,157.581,221.399z"/>
		</g>
		<g>
			<path style="fill:#FFE6DE;" d="M71.783,202.165c1.108,1.051,1.674,2.511,1.588,4.025c-0.019,0.337,0.301,0.625,0.625,0.625
				c0.354,0,0.606-0.287,0.625-0.625c0.104-1.819-0.633-3.656-1.954-4.909c-0.245-0.232-0.641-0.243-0.884,0
				C71.549,201.516,71.537,201.932,71.783,202.165L71.783,202.165z"/>
		</g>
		<g>
			<path style="fill:#FFE6DE;" d="M132.583,210.888c1.424-1.105,2.849-2.211,4.274-3.316c0.267-0.207,0.218-0.666,0-0.884
				c-0.264-0.263-0.616-0.208-0.884,0c-1.425,1.105-2.849,2.211-4.274,3.316c-0.267,0.207-0.218,0.666,0,0.884
				C131.963,211.152,132.316,211.096,132.583,210.888L132.583,210.888z"/>
		</g>
	</g>
</g>
<g id="Line">
	<g>
		<path style="fill:#421B36;" d="M88.615,82.88c-4.498-3.7-8.527-7.921-11.988-12.606c-0.249,0.324-0.498,0.647-0.747,0.971
			c7.002,0.994,13.873,2.692,20.531,5.076c0.457,0.164,0.981-0.354,0.813-0.813c-3.805-10.395-6.571-21.139-8.259-32.079
			c-0.368,0.214-0.737,0.429-1.105,0.643c8.53,6.939,16.027,15.068,22.231,24.148c0.314,0.46,1.044,0.414,1.208-0.158
			c2.597-9.044,6.086-17.797,10.429-26.145c-0.403-0.053-0.806-0.105-1.208-0.158c1.665,9.025,3.33,18.05,4.995,27.074
			c0.09,0.489,0.784,0.636,1.105,0.292c2.496-2.682,4.992-5.363,7.488-8.045c0.579-0.622-0.354-1.559-0.935-0.935
			c-2.496,2.682-4.992,5.363-7.488,8.045c0.368,0.097,0.737,0.194,1.105,0.292c-1.665-9.025-3.33-18.05-4.995-27.074
			c-0.103-0.557-0.956-0.643-1.208-0.158c-4.394,8.446-7.934,17.309-10.562,26.461c0.403-0.053,0.806-0.105,1.208-0.158
			c-6.268-9.173-13.819-17.404-22.438-24.416c-0.531-0.432-1.208-0.023-1.105,0.643c1.688,10.94,4.454,21.684,8.259,32.079
			c0.271-0.271,0.542-0.542,0.813-0.813c-6.659-2.383-13.529-4.081-20.531-5.075c-0.491-0.07-1.133,0.448-0.747,0.971
			c3.53,4.78,7.605,9.098,12.194,12.874C88.332,84.351,89.272,83.421,88.615,82.88L88.615,82.88z"/>
	</g>
</g>
<g id="Cloud">
	<g>
		<g>
			<path style="fill:#8380FF;" d="M281.301,114c-3.005-16.187-20.526-25.912-36.658-22.701c4.872-5.373,5.596-24.972,1.229-35.135
				s-9.678-17.023-18.931-22.089c-18.072-9.894-40.781-10.546-58.299,0.448c-17.518,10.994-26.737,27.852-24.541,50.119
				c-4.711-6.617-14.632-8.993-25.396-7.449c-9.891,1.418-18.807,7.884-24.795,16.507c-4.684,6.745-7.838,15.081-7.201,23.484
				c0.096,1.26,0.345,2.617,0.719,4.027c3.44,12.956,14.776,21.606,27.255,21.606l142.726-0.006
				c3.92,0.028,7.946,0.037,11.607-1.476C278.189,137.544,283.494,125.812,281.301,114z"/>
		</g>
		<path style="fill:#A0D2F4;" d="M180.962,86.218c0,3.468-2.811,5.446-6.279,5.446s-6.279-1.979-6.279-5.446
			c0-3.468,2.811-6.279,6.279-6.279S180.962,82.751,180.962,86.218z"/>
		<path style="fill:#A0D2F4;" d="M199.46,86.218c0,3.468-2.811,5.446-6.279,5.446s-6.279-1.979-6.279-5.446
			c0-3.468,2.811-6.279,6.279-6.279S199.46,82.751,199.46,86.218z"/>
		<path style="fill:#A0D2F4;" d="M217.958,86.218c0,3.468-2.811,5.446-6.279,5.446c-3.468,0-6.279-1.979-6.279-5.446
			c0-3.468,2.811-6.279,6.279-6.279C215.147,79.939,217.958,82.751,217.958,86.218z"/>
		<g>
			<g>
				<path style="fill:#A0D2F4;" d="M142.419,130.925c-0.181,0.562-0.596,24.132,0.841,25.231c2.982,2.281,89.131,3.166,91.019,1.106
					c0.979-1.068,1.32-25.433,0.101-26.337C234.379,130.925,142.686,130.093,142.419,130.925z"/>
				<g>
					<path style="fill:#421B36;" d="M216.723,130.925c0,8.846,0,17.691,0,26.537c0,0.851,1.322,0.852,1.322,0
						c0-8.846,0-17.691,0-26.537C218.045,130.074,216.723,130.073,216.723,130.925L216.723,130.925z"/>
				</g>
				<g>
					<path style="fill:#8380FF;" d="M187.973,144.579c2.403,0,4.806,0,7.209,0c0.851,0,0.852-1.322,0-1.322
						c-2.403,0-4.806,0-7.209,0C187.122,143.257,187.12,144.579,187.973,144.579L187.973,144.579z"/>
				</g>
				<g>
					<path style="fill:#8380FF;" d="M200.299,144.579c2.257,0,4.515,0,6.772,0c0.851,0,0.852-1.322,0-1.322
						c-2.257,0-4.515,0-6.772,0C199.448,143.257,199.447,144.579,200.299,144.579L200.299,144.579z"/>
				</g>
				<path style="fill:#8380FF;" d="M162.991,144.569c0,3.559-2.885,5.243-6.444,5.243s-6.444-1.684-6.444-5.243
					c0-3.559,2.885-6.444,6.444-6.444S162.991,141.01,162.991,144.569z"/>
				<g>
					<path style="fill:#421B36;" d="M221.947,139.191c3.352,0,6.704,0,10.057,0c0.851,0,0.852-1.322,0-1.322
						c-3.352,0-6.704,0-10.057,0C221.096,137.869,221.095,139.191,221.947,139.191L221.947,139.191z"/>
				</g>
				<g>
					<path style="fill:#421B36;" d="M221.947,142.783c3.352,0,6.704,0,10.057,0c0.851,0,0.852-1.322,0-1.322
						c-3.352,0-6.704,0-10.057,0C221.096,141.461,221.095,142.783,221.947,142.783L221.947,142.783z"/>
				</g>
				<g>
					<path style="fill:#421B36;" d="M221.947,146.375c3.352,0,6.704,0,10.057,0c0.851,0,0.852-1.322,0-1.322
						c-3.352,0-6.704,0-10.057,0C221.096,145.053,221.095,146.375,221.947,146.375L221.947,146.375z"/>
				</g>
				<g>
					<path style="fill:#421B36;" d="M221.947,149.967c3.352,0,6.704,0,10.057,0c0.851,0,0.852-1.322,0-1.322
						c-3.352,0-6.704,0-10.057,0C221.096,148.645,221.095,149.967,221.947,149.967L221.947,149.967z"/>
				</g>
			</g>
			<g>
				<path style="fill:#A0D2F4;" d="M142.419,158.802c-0.181,0.562-0.596,24.132,0.841,25.231c2.982,2.281,89.131,3.166,91.019,1.106
					c0.979-1.068,1.32-25.433,0.101-26.337C234.379,158.802,142.686,157.97,142.419,158.802z"/>
				<g>
					<path style="fill:#421B36;" d="M216.723,158.802c0,8.846,0,17.691,0,26.537c0,0.851,1.322,0.852,1.322,0
						c0-8.846,0-17.691,0-26.537C218.045,157.951,216.723,157.949,216.723,158.802L216.723,158.802z"/>
				</g>
				<g>
					<path style="fill:#8380FF;" d="M187.973,172.456c2.403,0,4.806,0,7.209,0c0.851,0,0.852-1.322,0-1.322
						c-2.403,0-4.806,0-7.209,0C187.122,171.134,187.12,172.456,187.973,172.456L187.973,172.456z"/>
				</g>
				<g>
					<path style="fill:#8380FF;" d="M200.299,172.456c2.257,0,4.515,0,6.772,0c0.851,0,0.852-1.322,0-1.322
						c-2.257,0-4.515,0-6.772,0C199.448,171.134,199.447,172.456,200.299,172.456L200.299,172.456z"/>
				</g>
				<path style="fill:#8380FF;" d="M162.991,172.446c0,3.559-2.885,5.243-6.444,5.243s-6.444-1.684-6.444-5.243
					c0-3.559,2.885-6.444,6.444-6.444S162.991,168.887,162.991,172.446z"/>
				<g>
					<path style="fill:#421B36;" d="M221.947,167.068c3.352,0,6.704,0,10.057,0c0.851,0,0.852-1.322,0-1.322
						c-3.352,0-6.704,0-10.057,0C221.096,165.746,221.095,167.068,221.947,167.068L221.947,167.068z"/>
				</g>
				<g>
					<path style="fill:#421B36;" d="M221.947,170.66c3.352,0,6.704,0,10.057,0c0.851,0,0.852-1.322,0-1.322
						c-3.352,0-6.704,0-10.057,0C221.096,169.338,221.095,170.66,221.947,170.66L221.947,170.66z"/>
				</g>
				<g>
					<path style="fill:#421B36;" d="M221.947,174.252c3.352,0,6.704,0,10.057,0c0.851,0,0.852-1.322,0-1.322
						c-3.352,0-6.704,0-10.057,0C221.096,172.93,221.095,174.252,221.947,174.252L221.947,174.252z"/>
				</g>
				<g>
					<path style="fill:#421B36;" d="M221.947,177.844c3.352,0,6.704,0,10.057,0c0.851,0,0.852-1.322,0-1.322
						c-3.352,0-6.704,0-10.057,0C221.096,176.522,221.095,177.844,221.947,177.844L221.947,177.844z"/>
				</g>
			</g>
			<g>
				<path style="fill:#A0D2F4;" d="M142.486,101.838c-0.157,0.569-1.322,22.147-0.138,25.705c0.173,0.521,91.37,2.101,91.995,0.838
					c0.764-1.542,1.302-26.544-0.815-27.475C231.411,99.976,143.256,99.045,142.486,101.838z"/>
				<g>
					<path style="fill:#421B36;" d="M216.723,101.007c0,8.846,0,17.691,0,26.537c0,0.851,1.322,0.852,1.322,0
						c0-8.846,0-17.691,0-26.537C218.045,100.156,216.723,100.155,216.723,101.007L216.723,101.007z"/>
				</g>
				<g>
					<path style="fill:#8380FF;" d="M187.973,114.661c2.403,0,4.806,0,7.209,0c0.851,0,0.852-1.322,0-1.322
						c-2.403,0-4.806,0-7.209,0C187.122,113.339,187.12,114.661,187.973,114.661L187.973,114.661z"/>
				</g>
				<g>
					<path style="fill:#8380FF;" d="M200.299,114.661c2.257,0,4.515,0,6.772,0c0.851,0,0.852-1.322,0-1.322
						c-2.257,0-4.515,0-6.772,0C199.448,113.339,199.447,114.661,200.299,114.661L200.299,114.661z"/>
				</g>
				<path style="fill:#FFFFFF;" d="M162.991,114.651c0,3.559-2.885,5.243-6.444,5.243s-6.444-1.684-6.444-5.243
					c0-3.559,2.885-6.444,6.444-6.444S162.991,111.092,162.991,114.651z"/>
				<g>
					<path style="fill:#421B36;" d="M221.947,109.397c3.352,0,6.704,0,10.057,0c0.851,0,0.852-1.322,0-1.322
						c-3.352,0-6.704,0-10.057,0C221.096,108.075,221.095,109.397,221.947,109.397L221.947,109.397z"/>
				</g>
				<g>
					<path style="fill:#421B36;" d="M221.947,112.989c3.352,0,6.704,0,10.057,0c0.851,0,0.852-1.322,0-1.322
						c-3.352,0-6.704,0-10.057,0C221.096,111.667,221.095,112.989,221.947,112.989L221.947,112.989z"/>
				</g>
				<g>
					<path style="fill:#421B36;" d="M221.947,116.581c3.352,0,6.704,0,10.057,0c0.851,0,0.852-1.322,0-1.322
						c-3.352,0-6.704,0-10.057,0C221.096,115.259,221.095,116.581,221.947,116.581L221.947,116.581z"/>
				</g>
				<g>
					<path style="fill:#421B36;" d="M221.947,120.173c3.352,0,6.704,0,10.057,0c0.851,0,0.852-1.322,0-1.322
						c-3.352,0-6.704,0-10.057,0C221.096,118.851,221.095,120.173,221.947,120.173L221.947,120.173z"/>
				</g>
			</g>
			<g>
				<path style="fill:#421B36;" d="M143.049,130.521c23.606,0,47.212,0,70.818,0c6.694,0,13.388,0,20.083,0
					c0.851,0,0.852-1.322,0-1.322c-23.606,0-47.212,0-70.818,0c-6.694,0-13.388,0-20.083,0
					C142.199,129.199,142.197,130.521,143.049,130.521L143.049,130.521z"/>
			</g>
			<g>
				<path style="fill:#421B36;" d="M143.049,158.583c23.606,0,47.212,0,70.818,0c6.694,0,13.388,0,20.083,0
					c0.851,0,0.852-1.322,0-1.322c-23.606,0-47.212,0-70.818,0c-6.694,0-13.388,0-20.083,0
					C142.199,157.261,142.197,158.583,143.049,158.583L143.049,158.583z"/>
			</g>
		</g>
		<g>
			<path style="fill:#421B36;" d="M142.841,82.659c1.838,1.744,2.813,4.227,2.669,6.755c-0.049,0.85,1.274,0.847,1.322,0
				c0.163-2.854-0.983-5.723-3.056-7.689C143.159,81.138,142.222,82.072,142.841,82.659L142.841,82.659z"/>
		</g>
		<g>
			<path style="fill:#421B36;" d="M240.642,96.761c2.303-1.787,4.606-3.574,6.909-5.362c0.282-0.219,0.23-0.705,0-0.935
				c-0.279-0.279-0.652-0.22-0.935,0c-2.303,1.787-4.606,3.574-6.909,5.362c-0.282,0.219-0.23,0.705,0,0.935
				C239.985,97.04,240.359,96.981,240.642,96.761L240.642,96.761z"/>
		</g>
	</g>
</g>
<g id="Arrow">
	<g>
		<path style="fill:#8380FF;" d="M194.02,239.635c0,0-0.145,6.922,0.116,8.433h5.593l-0.271-8.433H194.02z"/>
		<g>
			<path style="fill:#8380FF;" d="M199.236,208.921l-0.327-7.529c0,0,5.5,0.458,5.434,0c-0.065-0.458-7.791-8.446-8.511-7.988
				s-8.773,7.379-8.053,7.749s5.696,0,5.696,0v8.03L199.236,208.921z"/>
			<path style="fill:#8380FF;" d="M193.71,213.19c0,0-0.145,6.922,0.116,8.433h5.593l-0.271-8.433H193.71z"/>
			<path style="fill:#8380FF;" d="M193.71,226.148c0,0-0.145,6.922,0.116,8.433h5.593l-0.271-8.433H193.71z"/>
		</g>
	</g>
</g>
<g id="Character">
	<g>
		<path style="fill:#421B36;" d="M312.299,152.206c10.035,7.983,17.973,31.419,19.96,47.172c0.375,2.976,0.135,6.671-3.062,8.008
			c-1.254,0.525-2.713,0.542-4.115,0.549c-18.372,0.09-36.744,0.181-55.117,0.271c-2.51,0.012-5.304-0.067-7.091-1.543
			c-1.543-1.275-1.874-3.228-2.092-5.033c-0.987-8.185,2.601-18.848,2.874-27.071"/>
		<g>
			<path style="fill:#FFBFBF;" d="M256.991,223.567c0,0,0.642-6.096-1.925-9.304c-2.567-3.208-15.828-2.674-15.828-2.674
				s-2.032-4.599-5.347-6.31c-3.315-1.711-15.293-1.925-12.513,7.914c0,0-2.674,4.385,0.428,7.272c0,0-1.176,4.813,1.07,6.31
				c0,0-12.731,2.476-12.517,6.646c0.214,4.171,5.78,1.268,9.737,0.626c3.957-0.642,17.218-3.101,17.539-3.101
				c0.321,0-0.428,9.839-0.428,9.839h19.785V223.567z"/>
			<path style="fill:#A0D2F4;" d="M238.953,202.571c-0.212-0.129-6.598-2.154-8.563,2.36l-0.224,0.569l3.543,1.403
				c0,0,0.639-2.868,5.63,0L238.953,202.571"/>
			<path style="fill:#A0D2F4;" d="M238.299,202.61c0.335,3.908,1.917,14.685,9.23,16.513h8.896c1.76,0,3.426-0.783,4.537-2.148
				c1.882-2.31,4.96-6.611,5.291-14.393c0.036-0.844-0.506-1.606-1.323-1.819c-6.08-1.588-20.224-1.624-25.182-0.259
				C238.819,200.758,238.217,201.65,238.299,202.61z"/>
			<g>
				<path style="fill:#421B36;" d="M222.709,220.277c1.026-1.936,2.473-3.673,4.459-4.672c1.965-0.988,4.373-1.135,6.304,0.01
					c1.7,1.008,2.779,2.907,2.393,4.902c-0.183,0.944-0.662,1.855-1.45,2.431c-0.806,0.59-2.275,0.807-2.627-0.418
					c-0.222-0.772-1.429-0.444-1.205,0.332c0.631,2.192,3.253,2.176,4.764,0.936c1.523-1.25,2.095-3.357,1.73-5.252
					c-0.38-1.975-1.9-3.588-3.704-4.384c-2.048-0.905-4.383-0.736-6.404,0.16c-2.368,1.05-4.143,3.068-5.339,5.323
					C221.253,220.357,222.332,220.989,222.709,220.277L222.709,220.277z"/>
			</g>
			<g>
				<path style="fill:#421B36;" d="M232.964,220.149c-2.654,0.84-4.939,2.681-6.303,5.112c-0.394,0.702,0.685,1.333,1.079,0.631
					c1.205-2.147,3.205-3.793,5.556-4.537C234.061,221.112,233.734,219.905,232.964,220.149L232.964,220.149z"/>
			</g>
			<path style="fill:#A0D2F4;" d="M240.493,209.323c0,0-0.846,2.356-3.928,2.675l-0.289,4.385c0,0,4.695,0.239,6.341-3.108
				C244.264,209.927,240.493,209.323,240.493,209.323z"/>
			<g>
				<path style="fill:#421B36;" d="M222.471,213.316c1.264-3.289,4.683-5.52,8.225-4.826c3.526,0.691,5.945,4.187,4.978,7.726
					c-0.212,0.777,0.993,1.109,1.205,0.332c1.139-4.168-1.661-8.429-5.85-9.264c-4.255-0.849-8.245,1.751-9.763,5.699
					C220.977,213.735,222.185,214.061,222.471,213.316L222.471,213.316z"/>
			</g>
			<g>
				<path style="fill:#421B36;" d="M240.588,202.591c8,1.333,16.128,1.536,24.182,0.564c0.789-0.095,0.798-1.346,0-1.25
					c-7.936,0.957-15.964,0.795-23.85-0.519C240.133,201.254,239.795,202.458,240.588,202.591L240.588,202.591z"/>
			</g>
			<g>
				<path style="fill:#421B36;" d="M237.621,202.624c-0.066,4.384,0.967,8.716,2.984,12.608c0.37,0.714,1.449,0.083,1.079-0.631
					c-1.916-3.698-2.876-7.814-2.813-11.977C238.884,201.82,237.634,201.819,237.621,202.624L237.621,202.624z"/>
			</g>
			<g>
				<path style="fill:#421B36;" d="M236.823,212.75c0.852-0.209,1.534-0.859,1.824-1.679c0.306-0.864,0.052-1.833-0.527-2.516
					c-0.212-0.25-0.668-0.235-0.884,0c-0.245,0.266-0.226,0.617,0,0.884c0.076,0.09-0.033-0.057,0.007,0.007
					c0.022,0.034,0.046,0.066,0.068,0.1c0.039,0.062,0.068,0.128,0.105,0.191c0.043,0.075-0.047-0.137,0.003,0.007
					c0.011,0.031,0.022,0.061,0.032,0.092c0.025,0.077,0.04,0.156,0.06,0.235c0.03,0.118-0.003-0.076,0.002,0.002
					c0.002,0.032,0.006,0.064,0.008,0.097c0.005,0.081,0.004,0.161-0.001,0.242c-0.001,0.016-0.002,0.032-0.004,0.048
					c-0.005,0.048-0.002,0.032,0.008-0.046c0.006,0.004-0.016,0.086-0.017,0.095c-0.017,0.079-0.041,0.154-0.065,0.231
					c-0.031,0.1,0.003-0.023,0.012-0.021c0,0-0.044,0.093-0.05,0.104c-0.032,0.061-0.067,0.121-0.105,0.179
					c-0.003,0.004-0.088,0.125-0.032,0.049c0.055-0.074-0.026,0.03-0.039,0.044c-0.046,0.052-0.095,0.101-0.146,0.148
					c-0.024,0.022-0.056,0.063-0.087,0.076c0.065-0.027,0.064-0.047-0.003-0.001c-0.057,0.039-0.116,0.076-0.177,0.109
					c-0.034,0.018-0.069,0.034-0.103,0.052c-0.074,0.04,0.14-0.048,0,0c-0.073,0.025-0.146,0.048-0.221,0.066
					c-0.318,0.078-0.538,0.454-0.436,0.769C236.161,212.643,236.482,212.833,236.823,212.75L236.823,212.75z"/>
			</g>
			<g>
				<path style="fill:#421B36;" d="M251.682,195.45c-0.841-0.889-1.258-2.111-1.12-3.333c0.144-1.281,1.051-2.185,1.529-3.332
					c0.536-1.286,0.184-2.509-0.401-3.71c-0.466-0.956-1.54-2.727-0.314-3.577c0.657-0.455,0.033-1.539-0.631-1.079
					c-1.14,0.79-1.371,2.192-0.963,3.461c0.533,1.658,1.924,3.059,0.959,4.838c-0.69,1.272-1.441,2.322-1.451,3.833
					c-0.009,1.414,0.542,2.761,1.509,3.784C251.352,196.92,252.235,196.035,251.682,195.45L251.682,195.45z"/>
			</g>
			<g>
				<path style="fill:#421B36;" d="M256.356,195.45c-0.841-0.889-1.258-2.111-1.12-3.333c0.144-1.281,1.051-2.185,1.529-3.332
					c0.536-1.286,0.184-2.509-0.401-3.71c-0.466-0.956-1.54-2.727-0.314-3.577c0.657-0.455,0.033-1.539-0.631-1.079
					c-1.14,0.79-1.371,2.192-0.963,3.461c0.533,1.658,1.924,3.059,0.959,4.838c-0.69,1.272-1.441,2.322-1.451,3.833
					c-0.009,1.414,0.542,2.761,1.509,3.784C256.026,196.92,256.909,196.035,256.356,195.45L256.356,195.45z"/>
			</g>
			<g>
				<path style="fill:#421B36;" d="M235.314,231.99c3.024-0.8,6.101-1.394,9.209-1.759c0.338-0.04,0.621-0.259,0.625-0.625
					c0.003-0.307-0.29-0.664-0.625-0.625c-3.22,0.378-6.407,0.974-9.541,1.804C234.204,230.99,234.534,232.196,235.314,231.99
					L235.314,231.99z"/>
			</g>
		</g>
		<g>
			<g>
				<path style="fill:#8380FF;" d="M112.283,406.499c1.247-0.08,2.573,0.224,3.922,0c6.146-1.023,13.025-3.979,17.78-7.714
					c5.799-4.555,12.725-27.736,14.648-31.131c7.585,2,13.678,5.679,23.806,13.802c0.485,0.847-18.045,26.147-21.84,32.247
					c-4.12,6.621-7.775,26.667-12.279,29.406c-4.504,2.739-36.672-10.112-48.113-15.984c-17.772-9.122-19.269-20.064-18.014-22.293
					C73.054,403.301,105.354,406.942,112.283,406.499z"/>
				<path style="fill:#8380FF;" d="M72.822,404.526c0.778-0.104,1.491-0.113,2.786-0.11c0,0,0.028-0.136,0,0
					c0.219,0.441,7.059,13.485,26.16,24.123c19.427,10.816,40.268,9.055,40.268,9.055c-1.22,2.708-2.5,4.885-3.744,5.639
					c-0.142,0.086-0.31,0.153-0.499,0.209c-0.386,0.117-0.879,0.171-1.46,0.171c-8.398,0.004-35.793-11.043-46.159-16.362
					c-13.666-7.011-17.59-14.975-18.245-19.395C71.649,405.563,72.018,404.634,72.822,404.526z"/>
			</g>
			<path style="fill:#421B36;" d="M81.381,404.744l30.902,1.754c3.193,0.108,7.091-0.857,11.326-2.334c0,0-0.117-0.294,0,0
				c6.549-4.809,12.558-1.992,13.198,3.485c0.426,3.64-1.714,7.658-3.385,10.168c0.267,0.186,0.53,0.378,0.808,0.547
				c7.108,4.338,13.716,2.571,13.716,2.571c-2.044,6.42-4.059,12.5-5.909,16.659c0,0-20.921,2.005-40.35-8.809
				c-19.429-10.814-26.078-24.369-26.078-24.369L81.381,404.744z"/>
		</g>
		<g>
			<path style="fill:#FFFFFF;" d="M104.985,406.392c0.065,1.343,0.681,2.607,1.024,3.903c0.383,1.449,0.375,3.023,0.806,4.437
				c0.358,1.175,2.023,1.053,2.14-0.202c0.143-1.543-0.54-3.268-1.115-4.677c-0.545-1.336-1.275-2.862-2.548-3.623
				C105.171,406.157,104.977,406.234,104.985,406.392L104.985,406.392z"/>
		</g>
		<g>
			<path style="fill:#FFFFFF;" d="M111.153,406.613c-0.1,1.196,0.739,2.536,1.062,3.67c0.384,1.348,0.425,2.79,0.92,4.095
				c0.395,1.041,2.033,0.767,2.301-0.213c0.442-1.61-0.167-3.478-0.881-4.934c-0.586-1.194-1.567-2.781-2.988-3.005
				C111.346,406.191,111.169,406.419,111.153,406.613L111.153,406.613z"/>
		</g>
		<g>
			<path style="fill:#FFFFFF;" d="M116.664,405.983c0.401,1.147,1.378,2.117,2.051,3.124c0.799,1.195,1.085,2.707,1.968,3.803
				c0.645,0.801,1.828,0.184,1.916-0.704c0.244-2.471-2.979-6.668-5.605-6.623C116.805,405.587,116.59,405.772,116.664,405.983
				L116.664,405.983z"/>
		</g>
		<g>
			<path style="fill:#A0D2F4;" d="M94.547,405.577c-1.426,18.763,27.573,11.682,37.446,13.087c1.388,0.198,1.46-1.992,0.074-2.184
				c-12.151-1.683-32.639,6.23-36.352-11.013C95.571,404.795,94.597,404.916,94.547,405.577L94.547,405.577z"/>
		</g>
		<path style="fill:#FFFFFF;" d="M101.251,428.664c0,0,9.411,2.061,12.94-1.647c3.53-3.708,3.272-8.456,3.272-8.456l4.133-0.314
			c0,0-2.072,9.937-0.68,10.423c1.391,0.486,11.832-3.315,16.037-3.27c4.204,0.045,7.875,4.971,7.875,4.971
			c-0.676,2.142-1.421,4.195-2.231,5.919c0,0-3.482-3.822-6.457-3.952c-2.975-0.13-14.501,3.719-14.501,3.719
			S108.756,433.434,101.251,428.664z"/>
		<path style="fill:#421B36;" d="M226.873,333.793c0.918,1.147-12.073,119.025-14.031,120.452c-1.958,1.428-9.591,0.31-10.793-2.464
			l14.031-120.452L226.873,333.793z"/>
		<path style="fill:#421B36;" d="M311.276,151.859c2.279-2.952,6.374-4.369,9.99-3.455c3.616,0.914,6.547,4.106,7.149,7.786
			c5.812-1.761,12.599-0.478,16.966,3.744c4.366,4.221,5.816,11.371,2.925,16.712c2.352,1.149,3.502,4.133,2.859,6.67
			c-0.643,2.537-2.833,4.523-5.336,5.287c-2.504,0.764-5.257,0.413-7.675-0.588c-3.77-1.561-6.797-4.634-8.774-8.204
			c-1.978-3.569-2.969-7.616-3.413-11.673c-0.248-2.265-0.371-4.667-1.637-6.561c-1.266-1.894-4.186-2.898-5.855-1.347"/>
		<path style="fill:#8380FF;" d="M263.876,266.304c-2.71,2.794-7.976,7.351-11.745,8.321c-5.93,1.526-12.423-1.344-16.285-6.097
			c-3.862-4.752-5.386-11.057-5.454-17.18c-0.024-2.11,0.134-4.302,1.151-6.151c1.016-1.849,3.096-3.257,5.175-2.894
			c0.187-1.186-0.338-4.402-0.152-5.588c0,0,22.895-0.829,23.684,0C261.038,237.544,263.876,266.304,263.876,266.304z"/>
		<path style="fill:#8380FF;" d="M273.465,205.499c0,0-8.308,1.784-11.223,8.678c-2.915,6.894-10.453,39.791-10.453,39.791
			l8.822,14.153l17.519-13.468L273.465,205.499z"/>
		<path style="fill:#421B36;" d="M329.729,213.215c0,0,34.655,5.809,42.274,16.323c7.619,10.514,2.811,30.71-0.29,43.083
			c-4.032,16.091-18.077,58.248-21.12,65.152c-3.043,6.903-13.895,14.138-26.894,16.444c-12.999,2.306-61.121,10.542-69.954,8.574
			c-8.834-1.969-67.93-19.364-71.895-30.866c-3.964-11.502-0.007-18.406,2.732-22.022c2.74-3.616,77.849-3.856,77.849-3.856
			s11.678-86.893,16.999-92.811C284.75,207.317,329.729,213.215,329.729,213.215z"/>
		<path style="fill:#421B36;" d="M286.196,354.638c1.155,0.908,1.333,121.016-0.248,122.851c-1.582,1.836-9.269,2.484-11.071,0.056
			l0.248-122.851L286.196,354.638z"/>
		<path style="fill:#421B36;" d="M326.014,350.133c1.263,0.75,30.625,115.649,29.296,117.675c-1.329,2.026-8.867,3.668-10.97,1.496
			l-29.296-117.675L326.014,350.133z"/>
		<path style="fill:#421B36;" d="M268.27,325.619c0.918,1.147-12.073,119.025-14.031,120.452c-1.958,1.428-9.591,0.31-10.793-2.464
			l14.031-120.452L268.27,325.619z"/>
		<path style="fill:#8380FF;" d="M269.223,208.558l1.641,20.299c0,0-7.528,5.85-8.459,12.791
			c-1.373,10.237,6.379,17.791,6.379,17.791s-7.699,14.763-4.838,16.349c2.86,1.586,59.174,9.799,60.977,6.403
			c1.803-3.397,3.782-20.255,3.782-20.255s12.569-41.585,11.305-44.833c-1.265-3.248-16.398-9.948-25.964-11.207
			c-9.566-1.26-20.279-2.934-25.423-2.956C279.426,202.901,268.844,206.274,269.223,208.558z"/>
		<g>
			<path style="fill:#421B36;" d="M267.439,225.297c1.091,1.298,2.181,2.595,3.272,3.893c0-0.295,0-0.589,0-0.884
				c-4.114,3.32-6.854,8.167-7.523,13.418c-0.682,5.354-0.639,11.118,2.951,15.479c-0.054-0.203-0.107-0.405-0.161-0.608
				c-0.79,2.82-1.488,5.67-2.097,8.534c-0.43,2.026-0.822,4.069-1.037,6.13c-0.131,1.253-0.347,2.834,0.271,4.001
				c0.377,0.711,1.456,0.08,1.079-0.631c-0.361-0.681-0.228-1.691-0.182-2.424c0.082-1.307,0.286-2.605,0.515-3.893
				c0.49-2.763,1.13-5.501,1.82-8.22c0.221-0.872,0.449-1.743,0.685-2.612c0.238-0.875,0.064-1-0.542-1.842
				c-2.756-3.829-2.61-8.857-2.119-13.335c0.566-5.159,3.193-9.858,7.223-13.11c0.278-0.225,0.198-0.648,0-0.884
				c-1.091-1.298-2.181-2.595-3.272-3.893C267.805,223.797,266.925,224.685,267.439,225.297L267.439,225.297z"/>
		</g>
		<g>
			<g>
				<path style="fill:#8380FF;" d="M194.416,441.337c1.056-0.669,2.364-1.039,3.44-1.884c4.9-3.849,9.513-9.746,11.889-15.306
					c2.898-6.781-2.16-30.439-2.105-34.34c7.614-1.888,14.724-1.589,27.51,0.671c0.832,0.51-3.268,31.601-3.668,38.774
					c-0.433,7.786,5.988,27.124,3.354,31.69c-2.635,4.566-37.022,8.744-49.877,9.089c-19.969,0.535-26.538-8.343-26.508-10.901
					C158.472,457.375,188.552,445.054,194.416,441.337z"/>
				<path style="fill:#8380FF;" d="M158.857,458.561c0.633-0.465,1.253-0.815,2.391-1.434c0,0-0.04-0.133,0,0
					c0.404,0.282,12.669,8.437,34.532,8.594c22.234,0.156,39.668-11.399,39.668-11.399c0.23,2.961,0.154,5.486-0.575,6.744
					c-0.083,0.144-0.199,0.283-0.337,0.423c-0.282,0.288-0.689,0.572-1.198,0.851c-7.364,4.037-36.698,7.506-48.345,7.819
					c-15.354,0.415-22.621-4.686-25.319-8.248C158.326,460.033,158.204,459.041,158.857,458.561z"/>
			</g>
			<path style="fill:#421B36;" d="M166.469,454.641l27.947-13.304c2.853-1.439,5.808-4.158,8.813-7.487c0,0-0.244-0.202,0,0
				c3.434-7.363,10.057-7.779,13.25-3.283c2.121,2.988,2.175,7.54,1.914,10.544c0.324,0.035,0.646,0.077,0.971,0.092
				c8.318,0.391,13.265-4.333,13.265-4.333c1.291,6.613,2.443,12.913,2.819,17.449c0,0-17.387,11.807-39.622,11.654
				c-22.235-0.153-34.578-8.848-34.578-8.848L166.469,454.641z"/>
		</g>
		<g>
			<path style="fill:#FFFFFF;" d="M187.963,444.749c0.702,1.147,1.849,1.959,2.773,2.931c1.033,1.087,1.781,2.472,2.838,3.505
				c0.878,0.858,2.28-0.049,1.78-1.205c-0.616-1.422-2.044-2.607-3.225-3.567c-1.119-0.91-2.493-1.897-3.975-1.954
				C188.014,444.454,187.88,444.614,187.963,444.749L187.963,444.749z"/>
		</g>
		<g>
			<path style="fill:#FFFFFF;" d="M193.479,441.98c0.487,1.097,1.866,1.869,2.694,2.709c0.984,0.999,1.713,2.243,2.774,3.15
				c0.846,0.724,2.151-0.304,1.916-1.292c-0.386-1.624-1.817-2.97-3.142-3.904c-1.087-0.766-2.71-1.687-4.064-1.201
				C193.446,441.517,193.4,441.802,193.479,441.98L193.479,441.98z"/>
		</g>
		<g>
			<path style="fill:#FFFFFF;" d="M198.01,438.781c0.902,0.813,2.226,1.195,3.3,1.755c1.275,0.664,2.252,1.853,3.553,2.391
				c0.951,0.393,1.692-0.717,1.342-1.538c-0.973-2.284-5.816-4.418-8.097-3.117C197.944,438.365,197.844,438.632,198.01,438.781
				L198.01,438.781z"/>
		</g>
		<g>
			<path style="fill:#A0D2F4;" d="M178.416,449.047c7.761,17.142,29.795-2.997,39.13-6.507c1.312-0.493,0.323-2.449-0.984-1.952
				c-11.466,4.36-25.635,21.141-37.174,7.8C178.939,447.87,178.143,448.444,178.416,449.047L178.416,449.047z"/>
		</g>
		<path style="fill:#FFFFFF;" d="M195.386,466.077c0,0,9.244-2.713,10.559-7.66c1.315-4.948-1.192-8.989-1.192-8.989l3.474-2.26
			c0,0,2.956,9.71,4.41,9.469c1.454-0.242,8.786-8.591,12.495-10.571c3.709-1.98,9.295,0.578,9.295,0.578
			c0.436,2.203,0.769,4.362,0.886,6.263c0,0-4.89-1.68-7.562-0.365c-2.672,1.315-10.932,10.226-10.932,10.226
			S204.259,466.656,195.386,466.077z"/>
		<g>
			<path style="fill:#421B36;" d="M245.612,362.621c-0.452-6.533-0.141-13.185-0.113-19.727c0.04-9.321,0.115-18.643,0.251-27.963
				c0.041-2.783,0.038-5.575,0.183-8.355c0.042-0.804-1.208-0.802-1.25,0c-0.343,6.56-0.254,13.164-0.318,19.731
				c-0.09,9.32-0.16,18.642-0.132,27.962c0.008,2.776-0.063,5.581,0.128,8.352C244.417,363.419,245.667,363.425,245.612,362.621
				L245.612,362.621z"/>
		</g>
		<g>
			<g>
				<g>
					<g>
						<path style="fill:#421B36;" d="M260.961,160.444c2.208-4.16,5.858-7.446,9.984-9.717c4.393-2.419,9.378-3.755,14.392-3.857
							l4.53,49.418l-19.249-10.093c-2.116-4.31-9.622-8.443-10.93-12.085C258.096,169.677,258.753,164.604,260.961,160.444z"/>
					</g>
					<g>
						<path style="fill:#FFBFBF;" d="M303.54,155.525c-10.23-11.247-29.193-7.379-34.243,6.961
							c-1.597,4.535-1.844,10.333-0.787,17.91c2.949,21.141,23.857,18.272,23.857,18.272l2.784,9.286l18.135,1.023l-4.642-21.801
							c0,0,0.606-16.065-1.9-25.902C306.185,159.085,305.038,157.172,303.54,155.525z"/>
					</g>
					<g>
						<path style="fill:#421B36;" d="M274.85,168.809c0.077,0.778,0.708,1.353,1.41,1.284c0.702-0.069,1.208-0.757,1.132-1.535
							c-0.077-0.779-0.708-1.354-1.41-1.284C275.28,167.343,274.773,168.03,274.85,168.809z"/>
					</g>
					<g>
						<path style="fill:#421B36;" d="M288.613,167.421c0.077,0.779,0.708,1.354,1.41,1.284c0.702-0.069,1.208-0.757,1.132-1.535
							c-0.077-0.779-0.708-1.354-1.41-1.284C289.043,165.955,288.536,166.642,288.613,167.421z"/>
					</g>
					<g>
						<g>
							<path style="fill:#421B36;" d="M296.399,158.461c-2.936-1.383-5.736-0.717-8.692-0.012c-0.677,0.162-1.308-0.691-0.631-1.162
								c2.915-2.027,6.826-1.141,9.627,0.511C297.099,158.031,296.834,158.666,296.399,158.461L296.399,158.461z"/>
						</g>
					</g>
					<g>
						<g>
							<path style="fill:#421B36;" d="M298.794,195.389c-3.132,3.084-7.35,4.717-11.734,4.834c-0.745,0.02-0.874-1.089-0.115-1.165
								c4.257-0.428,8.033-1.727,11.788-3.754C298.779,195.279,298.831,195.352,298.794,195.389L298.794,195.389z"/>
						</g>
					</g>
					<g>
						<path style="fill:#421B36;" d="M318.744,160.16c4.193,8.654,2.523,18.194-3.579,25.626l-5.413,6.594
							c-1.37-6.285-4.626-22.695-4.626-22.695c-8.229-5.887-15.234-17.884-20.195-20.358l-0.277-2.811
							c5.597-2.603,12.739-2.099,18.487,0.152c3.242,1.269,6.666,3.109,9.159,5.538C312.299,152.206,316.941,156.441,318.744,160.16
							z"/>
					</g>
					<g style="opacity:0.3;">
						<path style="fill:#421B36;" d="M291.668,171.947c0.114,1.154,2.014,1.911,4.243,1.691c2.229-0.22,3.944-1.334,3.83-2.489
							c-0.114-1.154-2.014-1.911-4.243-1.691C293.268,169.678,291.554,170.793,291.668,171.947z"/>
					</g>
					<g style="opacity:0.3;">
						<path style="fill:#421B36;" d="M269.429,174.143c0.114,1.154,2.014,1.912,4.243,1.691c2.229-0.22,3.944-1.334,3.83-2.489
							c-0.114-1.154-2.014-1.911-4.243-1.691C271.029,171.874,269.315,172.989,269.429,174.143z"/>
					</g>
					<g>
						<g>
							<path style="fill:#421B36;" d="M284.074,147.717c-2.21-1.425-4.155-3.013-6.839-3.447c-2.666-0.432-5.009,0.285-7.482,1.206
								c-0.468,0.174-0.841-0.482-0.422-0.777c4.378-3.083,12.31-2.162,14.87,2.926
								C284.242,147.706,284.133,147.755,284.074,147.717L284.074,147.717z"/>
						</g>
					</g>
					<g>
						<g>
							<path style="fill:#421B36;" d="M273.747,139.462c5.941-0.427,10.865,3.179,12.492,8.906c0.208,0.732-0.903,1.163-1.11,0.427
								c-1.46-5.192-6.016-8.738-11.391-9.102C273.606,139.685,273.617,139.471,273.747,139.462L273.747,139.462z"/>
						</g>
					</g>
					<g>
						<path style="fill:#FFBFBF;" d="M313.004,170.166c1.134-0.713,2.667-0.594,3.815,0.095c1.148,0.689,1.938,1.871,2.385,3.133
							c0.744,2.098,0.564,4.583-0.771,6.364c-1.335,1.781-3.901,2.646-5.934,1.74L313.004,170.166z"/>
					</g>
					<g>
						<g>
							<path style="fill:#421B36;" d="M316.25,175.995c-0.431-0.247-1.338-0.328-1.82-0.262c-0.682,0.094-1.091,0.489-1.512,0.993
								c-0.435,0.52-1.335-0.007-1.022-0.639c0.426-0.863,1.35-1.448,2.307-1.521c0.452-0.034,0.971,0.046,1.372,0.264
								c0.456,0.249,0.554,0.588,0.813,0.996C316.443,175.914,316.356,176.056,316.25,175.995L316.25,175.995z"/>
						</g>
					</g>
					<g>
						<g>
							<path style="fill:#421B36;" d="M273.71,159.65c2.125-2.798,6.199-2.785,8.222,0.047c2.872,4.02,1.471,11.041-0.67,15.071
								c-0.425,0.799-1.573,0.26-1.269-0.583c1.149-3.179,2.251-6.438,1.984-9.881c-0.349-4.496-4.007-6.892-7.887-4.25
								C273.826,160.233,273.518,159.904,273.71,159.65L273.71,159.65z"/>
						</g>
					</g>
				</g>
				<g>
					<g>
						<path style="fill:#421B36;" d="M288.928,176.633c0.417,1.39-0.751,2.961-1.775,3.794c-1.257,1.022-2.915,1.585-4.499,1.042
							c-0.413-0.141-0.467-0.765-0.059-0.953c1.15-0.528,2.378-0.917,3.355-1.759c0.819-0.707,1.266-1.782,2.119-2.418
							C288.405,176.088,288.809,176.239,288.928,176.633L288.928,176.633z"/>
					</g>
				</g>
			</g>
		</g>
		<g>
			<path style="fill:#8380FF;" d="M332.421,351.236c-20.137,5.642-40.891,9.003-61.783,9.954
				c-5.915,0.269-11.837,0.343-17.757,0.235c-0.805-0.015-0.805,1.235,0,1.25c21.017,0.385,42.066-1.617,62.63-5.985
				c5.792-1.23,11.541-2.652,17.242-4.249C333.527,352.224,333.198,351.018,332.421,351.236L332.421,351.236z"/>
		</g>
		<g>
			<path style="fill:#8380FF;" d="M330.771,321.172c-3.793-3.446-8.486-5.667-13.473-6.766c-5.235-1.153-10.52-0.966-15.816-0.402
				c-11.15,1.188-22.372,4.14-31.883,10.257c-4.871,3.133-9.182,7.119-12.26,12.054c-0.427,0.685,0.654,1.313,1.079,0.631
				c5.388-8.641,14.603-14.168,24.007-17.519c5.301-1.889,10.835-3.108,16.407-3.855c5.213-0.698,10.559-1.183,15.79-0.395
				c5.617,0.846,11.03,3.031,15.265,6.879C330.481,322.596,331.368,321.715,330.771,321.172L330.771,321.172z"/>
		</g>
		<g>
			<path style="fill:#A0D2F4;" d="M220.954,271.691c0,0-19.575-8.868-33.367,1.351c-13.792,10.22-66.134,101.029-70.108,113.869
				c-0.933,3.016,44.341,22.446,49.71,18.594c5.37-3.852,27.788-63.636,27.788-63.636L220.954,271.691z"/>
			<path style="opacity:0.3;fill:#421B36;" d="M161.96,377.265c-0.078-1.032,0.707-1.255,1.369-1.546
				c0.928,0.141,1.017,0.833,1.272,1.546c0.08,0,0.16,0,0.24,0c-0.069,1.38-2.562,1.535-2.641,0
				C162.12,377.265,162.04,377.265,161.96,377.265z M167.96,377.265c0.08,0,0.16,0,0.24,0c-0.591,2.219,2.215,1.569,2.16,0
				C170.674,375.473,167.837,375.697,167.96,377.265z M179.299,353.928c0.42,0.521,0.792,1.461,1.621,1.258
				c0.68,0.068,0.947-0.721,1.351-1.129c-0.148-0.799-0.719-0.85-1.351-0.791c0-0.08,0-0.16,0-0.24
				C180.3,353.153,179.701,353.318,179.299,353.928z M179.257,342.773c0.219,0.783,1,0.782,1.663,0.652c0.189,0,0.378,0,0.564,0
				c0.271-0.803,0.821-2.071-0.564-1.92C180.241,341.75,179.607,342.055,179.257,342.773z M180.92,349.425c0-0.08,0-0.159,0-0.239
				c0.99,0.125,0.962-0.604,1.159-1.303c-0.252-0.455-0.64-0.594-1.159-0.378c0-0.08,0-0.16,0-0.239
				c-0.61,0.154-0.928,0.708-1.407,0.969C179.379,349.057,180.189,349.677,180.92,349.425z M180.92,360.465c0,0.08,0,0.16,0,0.24
				c0.599,0.027,0.961-0.268,1.152-0.943c-0.286-0.323-0.53-1.209-1.152-0.977c0-0.08,0-0.16,0-0.24
				C179.113,358.754,179.078,360.413,180.92,360.465z M179.52,331.075c0.2,0.61,0.731,1.069,1.399,0.83c0,0.08,0,0.16,0,0.24
				c1.753,0.022,1.124-1.928,0-1.92c0-0.08,0-0.16,0-0.24C180.305,330.13,179.998,330.655,179.52,331.075z M179.766,365.908
				c0.369,0.228,0.761,0.161,1.153,0.077c0,0.32,0,0.64,0,0.961c1.093-0.001,1.315-2.827,0-2.16c0-0.08,0-0.16,0-0.24
				C179.956,364.809,179.899,364.876,179.766,365.908z M179.719,377.265c0.089,0.3,0.171,0.71,0.34,1.019
				c0.254-0.659,0.509-1.321,0.764-1.986c-0.378-0.025-0.758-0.052-1.18-0.081c-0.313,0.279-0.148,0.681-0.164,1.047
				C179.559,377.265,179.639,377.265,179.719,377.265z M166.341,372.776c-0.443,0.262-0.914,0.537-1.479,0.871
				c0,0.43,0,0.818,0,1.283c0.406,0.222,0.814,0.445,1.25,0.683c0.439-0.374,0.854-0.728,1.279-1.091
				C167.458,373.461,167.438,373.428,166.341,372.776z M169.398,355.498c1.625-1.42,0.741-3.464-1.409-2.24c0,0.438,0,0.865,0,1.371
				C168.412,354.89,168.872,355.173,169.398,355.498z M173.344,345.518c-0.469-1.412-2.268-1.783-2.484-0.056
				C170.87,347.028,173.108,346.906,173.344,345.518z M165.067,363.275c0.406,0.215,0.783,0.415,1.096,0.58
				c0.78-0.107,0.933-0.8,1.387-1.126C167.029,360.564,164.936,361.453,165.067,363.275z M176.366,368.588
				c0.497,0.521,1.279,1.578,1.984,0.805c0.052-0.63,0.815-1.82-0.091-2.078C177.189,367.065,176.459,367.424,176.366,368.588z
				 M160.167,372.843l-0.72,2.245c0.081,0.121,0.199,0.221,0.404,0.27c0.787-0.13,2.314-0.125,1.736-1.205
				C161.175,373.762,160.75,372.534,160.167,372.843z M178.518,315.631l-0.675,2.104c0.234-0.017,0.494-0.093,0.781-0.26
				C179.066,316.711,179.01,316.034,178.518,315.631z M167.736,365.5c0.432,1.1,0.432,1.1,1.151,1.494
				c0.467-0.285,0.96-0.587,1.467-0.897c-0.156-0.758-0.85-1.063-1.008-1.657C168.505,364.539,168.106,365.012,167.736,365.5z
				 M169.878,347.262c-1.312,0.177-1.495-0.253-1.934,1.428c0.472,0.284,0.895,0.539,1.309,0.789
				C170.443,349.063,171.095,348.115,169.878,347.262z M167.469,351.34c-0.072-0.197-0.142-0.393-0.215-0.593l-0.489,1.525
				C167.071,352.154,167.333,351.875,167.469,351.34z M171.008,339.044l-0.212,0.661c0.033,1.188,1.457,1.278,2.348,0.293
				c0.17-0.504-0.063-0.834-0.28-1.191C172.22,338.56,171.634,338.757,171.008,339.044z M164.264,360.069
				c0.08-0.042,0.165-0.078,0.258-0.102c-0.013-0.18-0.041-0.332-0.075-0.468L164.264,360.069z M170.834,374.811
				c0.185,0.203,0.314,0.346,0.425,0.467c0.585,0.047,1.034-0.328,1.651-0.502C173.927,372.42,170.956,372.359,170.834,374.811z
				 M170.362,359.076c-1.201-0.576-2.74-0.187-2.371,1.35c0.564,0.291,1.027,0.725,1.77,0.491
				C169.754,360.258,170.13,359.666,170.362,359.076z M173.187,368.704c0.213-1.605-1.528-1.836-2.383-0.714
				C170.91,369.472,172.417,369.969,173.187,368.704z M172.101,361.403c-0.398,0.327-0.81,0.664-1.216,0.998
				c-0.157,0.605-0.071,1.108,0.571,1.439C173.474,363.592,173.573,362.64,172.101,361.403z M169.997,342.194l-0.431,1.343
				C170.191,343.216,170.666,342.565,169.997,342.194z M178.499,338.58c-0.428,0.123-0.726,0.391-1.178,0.195
				c-0.381-0.164-0.683,0.128-0.73,0.543C176.674,341.714,179.68,340.98,178.499,338.58z M171.195,350.022
				c-1.092,1.689,0.879,2.824,1.769,1.336C173.145,350.13,172.207,349.562,171.195,350.022z M174.004,347.702
				c-0.591,0.87-0.007,1.697,1.015,1.548C177.401,349.201,175.023,345.923,174.004,347.702z M177.684,327
				c-1.243,0.642-1.457,1.767,0.003,2.27C179.111,329.364,179.352,327.036,177.684,327z M178.592,344.547
				c-1.037-0.56-2.426,0.077-1.89,1.324C177.499,346.949,179.802,346.109,178.592,344.547z M178.415,334.995
				c0.127-0.557,0.237-1.048,0.344-1.518c-0.421-0.477-0.91-0.586-1.54-0.625c-0.179,0.176-0.401,0.396-0.558,0.549
				c0,0.483,0,0.83,0,1.174C177.157,335.03,177.692,335.203,178.415,334.995z M173.447,356.965c-0.437-0.565-0.73-1.28-1.759-1.349
				c-0.152,0.19-0.347,0.433-0.527,0.658c0.115,0.702,0.199,1.376,0.979,1.779C172.722,357.876,173.098,357.487,173.447,356.965z
				 M161.92,370.948c0.185,1.053,1.502,1.754,2.37,0.936c0.05-0.2,0.107-0.428,0.158-0.634c-0.23-0.636-0.691-0.942-1.441-1.058
				C162.708,370.399,162.333,370.66,161.92,370.948z M170.161,371.844c0.635-2.043-2.11-1.729-2.126-0.074
				C168.82,372.665,169.581,372.812,170.161,371.844z M173.475,353.702c0.238,1.125,1.783,1.785,2.551,0.875
				C175.46,353.112,174.727,352.35,173.475,353.702z M176.868,362.692c0.114,0.422,0.206,0.76,0.311,1.143
				c1.547,0.398,1.746-0.57,1.521-1.884C177.615,361.152,177.251,361.728,176.868,362.692z M173.764,336.234
				c0.045,1.784,1.381,2.732,2.063,0.585c-0.128-0.35-0.224-0.609-0.348-0.947C174.926,335.91,174.073,335.559,173.764,336.234z
				 M177.422,323.487c0.39-0.164,0.817-0.345,1.265-0.533c0.064-0.543,0.137-1.078-0.104-1.583
				C177.026,321.094,175.774,322.538,177.422,323.487z M176.589,356.608c0.121,0.359,0.219,0.65,0.33,0.984
				c0.365,0.174,0.747,0.357,1.109,0.529c0.601-0.328,0.604-0.959,0.952-1.366c-0.132-0.253-0.239-0.46-0.339-0.653
				C177.734,355.957,177.485,356.016,176.589,356.608z M162.802,364.626l-0.376,1.174c0.365,1.75,3.725,0.177,1.117-1.411
				C163.313,364.463,163.066,364.542,162.802,364.626z M175.386,372.305c0.241-0.428,0.448-0.793,0.671-1.189
				c-0.177-0.526-0.649-0.718-1.175-0.94C172.888,371.248,173.322,372.007,175.386,372.305z M165.577,355.975l-0.392,1.223
				c0.123,0.435,0.492,0.82,1.129,0.894c0.311-0.395,0.622-0.788,0.971-1.23c-0.255-0.383-0.49-0.734-0.689-1.032
				C166.161,355.731,165.82,355.805,165.577,355.975z M174.148,341.784c-0.548,0.549-0.201,1.05-0.146,1.541
				c1.351,0.704,1.441,0.056,2.061-0.968C175.661,341.274,174.87,341.65,174.148,341.784z M177.009,375.118c0.494,0,0.915,0,1.359,0
				c0.475-0.921,0.498-1.506-0.5-2.03c-0.384,0.084-0.761,0.167-1.152,0.253C176.314,374.039,177.053,374.479,177.009,375.118z
				 M174.297,330.161c-1.305,1.839,1.8,3.158,1.642,0.632C175.504,330.245,175.062,329.882,174.297,330.161z M177.307,350.067
				c0.205,0.772-0.479,1.078-0.705,1.596c0.475,0.618,0.475,0.618,1.351,0.846C178.776,351.922,179,349.726,177.307,350.067z
				 M164.923,368.639c0.567,0.912,1.338,0.848,2.211,0.692c-0.127-0.57-0.184-1.068-0.197-1.623
				C165.743,367.303,165.454,367.437,164.923,368.639z M172.862,333.262l-0.515,1.605
				C173.024,334.656,173.447,333.733,172.862,333.262z M176.258,365.71c-0.37-1.143-0.37-1.143-1.724-0.999
				c-0.258,0.426-0.427,0.886-0.443,1.416C174.622,366.933,175.742,366.228,176.258,365.71z M174.052,359.167
				c0.144,0.467,0.123,0.879-0.006,1.401C176.598,362.18,176.032,357.938,174.052,359.167z M175.637,324.61l-0.608,1.895
				c0.078,0.034,0.157,0.067,0.245,0.088c-0.057-0.797,0.667-1.1,0.497-1.895C175.724,324.664,175.683,324.642,175.637,324.61z
				 M176.12,377.265c0.491-0.733-0.464-0.939-1.02-1.231c-1.104,0.244-1.104,0.244-1.141,1.231
				C173.947,378.587,175.982,378.578,176.12,377.265z M175.448,389.994c0.193-0.478,0.387-0.961,0.584-1.452
				c-0.117-0.527-0.606-0.964-1.584-0.976c-0.317,0.261-0.621,0.512-0.954,0.784c0.019,0.681-0.245,1.413,0.308,2.026
				C174.49,390.502,175.053,390.315,175.448,389.994z M169.701,393.44c-1.587-1.077-2.547,2.423-0.513,2.596
				C170.668,395.224,170.796,394.741,169.701,393.44z M167.715,403.476c-0.599-1.873-1.889-2.115-2.837-0.308
				c0.463,0.506,0.908,0.992,1.364,1.492C167.079,404.709,167.315,404.016,167.715,403.476z M170.569,386.061
				c1.357,2.525,4.186-0.049,1.756-1.286C171.068,384.055,171.218,385.368,170.569,386.061z M171.237,390.586
				c-0.225,0.432-0.421,0.809-0.63,1.209c0.234,0.346,0.475,0.701,0.716,1.057C173.915,393.774,173.601,389.958,171.237,390.586z
				 M165.358,381.483c1.77-0.354,2.891-1.006,1.109-2.559c-0.542-0.42-0.961,0.337-1.344,0.639
				C164.477,380.16,165.149,380.74,165.358,381.483z M159.868,379.089c-0.962,1.165-0.449,3.25,1.26,2.3
				C162.467,380.36,161.17,379.032,159.868,379.089z M168.088,383.786c0.932,0.568,1.19,0.796,2.167-0.099
				C170.443,380.337,166.814,382.337,168.088,383.786z M166.679,390.577c-2.016-0.424-1.592,1.46-0.769,2.546
				C167.491,393.342,167.95,391.155,166.679,390.577z M168.755,399.204c-0.262,0.788-1.663,1.39-0.693,2.071
				c0.525,0.02,0.869,0.703,1.394,0.47C170.826,400.881,170.401,399.324,168.755,399.204z M167.602,386.096
				c-0.665-0.458-0.895-1.948-1.96-1.403C163.77,386.303,166.614,388.258,167.602,386.096z M156.141,388.861
				c1.254,1.046,1.558,1.606,2.869,0.33c-0.385-0.917-0.916-1.363-1.625-1.719C156.716,387.653,156.632,388.389,156.141,388.861z
				 M176.836,386.528c0.228-0.574,0.458-1.155,0.689-1.743C176.816,384.914,176.496,385.817,176.836,386.528z M154.505,390.496
				l-0.661,2.06c0.102,0.133,0.214,0.255,0.376,0.335C156.679,392.276,155.773,390.044,154.505,390.496z M159.226,403.323
				c0.474,0.277,0.953,0.544,1.433,0.796c0.211,0.008,0.427,0.007,0.646,0.01c0.932-1.018-0.054-1.702-0.902-2.307
				C159.48,401.94,159.6,402.663,159.226,403.323z M164.774,383.024c-0.455-0.548-0.822-0.878-1.422-1.427
				C160.492,383.336,163.975,385.355,164.774,383.024z M158.948,394.79c-0.166-0.966-1.717-1.987-2.258-0.89
				C155.794,396.011,157.783,396.183,158.948,394.79z M159.384,386.802c1.297,0.793,2.247,0.53,1.998-1.251
				c-0.389-0.256-0.746-0.492-1.108-0.732C159.416,385.243,159.126,385.879,159.384,386.802z M155.918,386.09l-0.196,0.612
				C155.887,386.527,155.945,386.316,155.918,386.09z M166.147,396.541c-1.736-0.135-0.913,2.668,0.484,2.066
				C167.971,398.073,167.555,396.412,166.147,396.541z M158.971,400.578c-0.277-0.441-0.433-0.746-0.456-1.242
				C155.415,398.584,156.316,403.112,158.971,400.578z M159.376,396.657c0.141,0.744,0.141,0.744-0.036,1.5
				c1.524,1.234,2.3,0.13,1.987-1.508C160.689,396.532,159.96,396.168,159.376,396.657z M164.558,400.133
				c-1.02-0.774-1.02-0.774-2.286-0.601C161.814,401.684,164.169,402.455,164.558,400.133z M159.259,392.264
				c0.925,0.712,2.069,0.993,2.473-0.353c-0.21-0.102-0.439-0.213-0.753-0.363c0.153-0.176,0.274-0.316,0.395-0.455
				C160.557,389.76,159.343,391.101,159.259,392.264z M164.438,389.203c-0.008-1.043-0.52-1.389-1.303-1.547
				C161.049,388.811,162.981,391.185,164.438,389.203z M157.263,381.897l-0.593,1.849c0.631,0.748,1.641,0.43,2.456-0.672
				c-0.902-0.213-1.275-0.472-1.814-1.199C157.293,381.881,157.281,381.891,157.263,381.897z M174.071,383.581
				c-0.084,0.508,0.071,0.627,0.506,0.715c0.935,0.023,1.774-0.822,1.457-1.77C174.867,381.915,173.175,381.947,174.071,383.581z
				 M168.165,388.751c-0.109,0.423-0.291,0.831,0.221,1.256c1.462,0.397,2.154-0.758,1.346-2.022
				C168.934,387.853,168.284,387.733,168.165,388.751z M164.488,394.424c-0.398-0.064-0.599-0.21-0.726-0.619
				c-1.168-1.27-1.576,0.608-1.129,1.666C163.341,395.898,165.586,395.276,164.488,394.424z M163.077,405.241
				c0.381,0.149,0.757,0.283,1.121,0.392C163.989,405.237,163.592,405.058,163.077,405.241z M171.196,380.836
				c0.292,1.073,1.671,0.496,1.816-0.456c-0.267-0.495-0.471-0.873-0.674-1.251C171.061,378.816,171.226,380.044,171.196,380.836z
				 M178.879,380.229c-0.279-1.247-1.236-1.157-2.218-0.669C177.029,381.435,177.568,381.838,178.879,380.229z M171.717,398.681
				c0.053-0.047,0.098-0.086,0.15-0.132c0.26-0.591,0.529-1.211,0.807-1.861c-0.598-0.413-1.369-0.122-1.823,1.062
				C170.986,398.158,171.34,398.397,171.717,398.681z M154.376,396.555c-1.124,0.267-0.486,1.767,0.569,1.4
				c0,0.009,0,0.018,0.001,0.026C156.697,398.071,155.585,396.214,154.376,396.555z M180.92,370.065
				c-1.869,0.189-2.038,2.169,0,2.16c1.441,0.43,1.086-1.09,1.397-1.961C182.5,369.336,181.37,369.856,180.92,370.065z
				 M180.92,312.705c-0.346,0.045-0.691,0.09-1.065,0.139c-0.725,0.976-0.279,2.398,1.065,2.262c0-0.08,0-0.16,0-0.24
				c0.439-0.25,0.878-0.5,1.393-0.791C182.43,313.377,181.645,312.363,180.92,312.705z M182.102,336.713
				c-0.149-0.504-0.504-1.366-1.183-0.968c-0.841,0-1.027,0.737-1.476,1.255c0.184,0.327,0.352,0.626,0.545,0.969
				c0.348-0.113,0.639-0.209,0.931-0.304C181.687,337.867,181.864,337.299,182.102,336.713z M181.347,306.809l-0.752,2.346
				c0.107-0.002,0.216-0.016,0.325-0.049c0-0.16,0-0.32,0-0.48c0.179,0.07,0.358,0.139,0.601,0.234
				c0.409-0.291,0.792-0.58,0.37-1.194c-0.049-0.071,0.083-0.267,0.131-0.405C181.856,306.993,181.61,306.883,181.347,306.809z
				 M180.92,318.465c0-0.08,0-0.16,0-0.24c-2.258-0.301-1.369,2.153,0,2.16C181.915,320.033,182.324,318.356,180.92,318.465z
				 M182.055,325.789c-0.285-0.508-0.474-1.102-1.135-1.324c0-0.08,0-0.16,0-0.24c-0.369,0.12-0.738,0.24-1.068,0.348
				c-0.364,0.707,0.179,1.173,0.18,1.838c0.384-0.114,0.637-0.189,0.889-0.266C181.34,326.264,181.688,326.127,182.055,325.789z
				 M196.786,310.965c-0.146-0.459-0.254-0.793-0.379-1.185c-2.368-1.019-3.583,1.902-0.85,2.514
				C196.179,311.961,195.946,311.084,196.786,310.965z M184.078,298.296l-0.728,2.27c0.134,0.069,0.275,0.132,0.434,0.168
				C185.164,300.186,185.636,298.929,184.078,298.296z M190.704,304.894c-0.203-0.513-0.67-0.814-1.057-1.164
				c-1.327,0.13-1.273,1.389-1.539,2.394c0.68,0.31,1.335,0.117,2.042,0.159C190.293,305.674,190.459,305.446,190.704,304.894z
				 M198.893,286.066c-0.059-0.377-0.177-0.722,0.293-0.964c0.885-1.282-2.824-2.955-2.135,0.49
				C197.544,286.122,198.163,286.233,198.893,286.066z M196.972,313.584c-0.026,0.134-0.056,0.272-0.103,0.416
				c0.021,0.021,0.042,0.044,0.063,0.066L196.972,313.584z M190.977,310.991c-2.532-3.686-3.989,1.448-0.242,1.26
				C190.489,311.68,190.47,311.225,190.977,310.991z M190.29,346.227c1.595-2.067-1.802-2.833-2.17-0.564
				C188.621,346.696,189.401,346.575,190.29,346.227z M192.46,306.576c-0.877,0.183-1.605,1.791-0.799,2.341
				C193.486,309.837,194.556,307.331,192.46,306.576z M192.288,343.711c0.321-0.054,0.579-0.184,0.82-0.343
				c0.157-0.432,0.303-0.833,0.442-1.215C192.256,340.448,189.527,342.19,192.288,343.711z M187.851,302.426
				c-0.027-0.991-0.998-1.141-1.718-1.607c-0.572,0.331-0.438,1.035-0.934,1.354C185.675,303.588,187.154,303.833,187.851,302.426z
				 M186.567,295.268c-3.506,1.232,1.138,4.708,0.957,0.388C187.235,295.538,186.878,295.394,186.567,295.268z M192.294,300.991
				c-2.069,0.87-1.244,2.763,0.781,2.289C193.903,302.225,193.507,301.371,192.294,300.991z M196.772,307.717
				c0.129,0.389,0.238,0.719,0.35,1.054c0.09,0.029,0.161,0.038,0.244,0.06l0.147-1.774
				C197.273,307.191,197.024,307.397,196.772,307.717z M193.319,295.621c-1.217-0.87-2.146-0.107-1.835,1.276
				c0.141,0.734,0.929,0.823,1.55,0.733C194.057,297.499,193.396,296.255,193.319,295.621z M186.643,318.37
				c-0.918,0.151-1.01,0.886-1.174,1.57C186.627,322.453,189.3,318.998,186.643,318.37z M188.194,293.686
				c0.198,0.922,0.982,0.996,1.563,1.308C191.698,293.438,189.311,290.94,188.194,293.686z M184.892,363.567
				c0-0.389,0-0.733,0-1.154c-0.224-0.246-0.663-0.191-0.679-0.637c-0.216-0.399-0.797-0.232-1.228-0.258
				c-0.193,0.342-0.383,0.678-0.581,1.027C183.292,364.412,183.18,363.582,184.892,363.567z M194.228,340.287
				c0.252-0.696,0.442-1.219,0.557-1.538C194.205,339.194,193.882,339.866,194.228,340.287z M194.572,288.898
				c0.32,0.101,0.689,0.216,1.107,0.346c1.099-1.155,0.571-2.207-0.792-2.767C193.98,287.225,193.988,287.998,194.572,288.898z
				 M183.448,369.413c0.234-0.619,0.468-1.237,0.7-1.853c-1.107-0.144-1.538,0.187-1.778,1.251
				C182.778,368.957,183.122,369.155,183.448,369.413z M184.352,309.915c-2.314-0.169-2.209,2.714,0.23,2.043
				C185.132,311.445,185.258,310.059,184.352,309.915z M182.36,322.121c0.373,1.524,2.158,1.582,2.59,0.026
				C184.524,320.874,183.253,320.704,182.36,322.121z M190.985,284.47c0.243,0.563,0.228,0.977,0.043,1.634
				c0.743-0.449,1.202-0.215,1.939-0.285C193.867,284.201,192.517,282.983,190.985,284.47z M191.245,331.395
				c0.322,0.325,0.678,0.684,1.055,1.064c1.015-0.458,1.164-1.247,1.027-2.275c-0.406-0.2-0.756-0.374-1.071-0.53
				C191.427,329.95,191.463,330.69,191.245,331.395z M192.228,326.641c0.494-0.295,0.899-0.537,1.329-0.795
				C193.992,322.339,189.646,325.111,192.228,326.641z M188.035,336.243c-0.671-0.591-1.394-0.407-2.171-0.392
				c-0.152,0.465-0.509,0.863-0.356,1.432c0.476,0.312,1.106,1.115,1.617,0.385C187.462,337.156,188.033,337.026,188.035,336.243z
				 M193.878,317.367c0.82,0.832,2.397,0.344,2.613-0.705c-0.479-0.397-0.946-0.784-1.463-1.212
				C194.351,315.903,193.836,316.436,193.878,317.367z M189.277,323.489c0.392-0.087,0.763-0.17,1.2-0.267
				c-0.163-0.91,0.242-2.483-1.222-2.227C188.211,321.882,188.162,322.664,189.277,323.489z M193.89,328.106
				c0.165,0.683,1.102,1.27,1.789,1.094l0.156-1.888C195.186,327.117,194.234,327.356,193.89,328.106z M185.71,308.278
				c0.074,0.763,0.978,1.187,1.638,0.764c0.635-0.626-0.036-1.517-0.092-2.354C186.363,306.159,185.498,307.441,185.71,308.278z
				 M193.831,314.022c-0.659-1.343-0.662-1.344-2.22-0.998C190.682,314.411,192.749,315.885,193.831,314.022z M196.258,305.014
				c0.051-0.936-0.244-1.17-1.211-1.106c-0.951,0.038-0.682,1.156-0.877,1.862C194.883,306.291,196.502,306.255,196.258,305.014z
				 M188.139,328.206c0.384,0.887,2.167,1.784,2.143,0.218c0.235-0.986,0.238-0.987-0.65-1.409
				C188.901,326.87,188.259,327.461,188.139,328.206z M184.04,315.483c-1.548,0.479-1.713,0.791-1.113,2.003
				c0.277,0.096,0.573,0.197,0.881,0.304c0.422-0.31,0.83-0.611,1.235-0.909C185.17,316.094,184.407,315.963,184.04,315.483z
				 M196.194,322.983l0.071-0.858c-0.104-0.296-0.209-0.594-0.325-0.922C193.118,320.716,193.93,324.279,196.194,322.983z
				 M188.391,334.491c0.308,0.175,0.614,0.35,0.968,0.551c0.31-0.149,0.623-0.301,0.88-0.424c0.508-1.143,0.086-1.741-1.082-1.904
				C188.21,333.009,188.296,333.729,188.391,334.491z M191.534,318.686c-0.07,0.648,0.593,1.059,0.229,1.797
				c0.836,0.307,1.355-0.034,1.789-0.6c-0.09-0.505-0.173-0.966-0.26-1.451c-0.303-0.108-0.598-0.215-0.918-0.33
				C192.083,318.305,191.794,318.506,191.534,318.686z M183.575,350.007c-0.448,0.108-0.775,0.579-0.728,1.066
				C182.973,354.49,186.964,349.937,183.575,350.007z M186.748,326.211c1.59,0.182,0.774-2.532-0.451-2.136
				C184.979,324.36,185.283,326.491,186.748,326.211z M191.323,347.991c-0.004,0.079-0.001,0.159,0.008,0.238
				c0.042-0.113,0.082-0.223,0.123-0.335C191.41,347.928,191.365,347.953,191.323,347.991z M187.084,349.431
				c0.253-0.364,0.497-0.717,0.75-1.083c-0.402-0.809-0.993-1.199-1.994-0.926C185.075,348.543,185.624,349.825,187.084,349.431z
				 M185.917,354.881c2.028,0.775,2.564-1.327,0.767-2.233C185.576,353.174,185.589,353.973,185.917,354.881z M189.696,300.507
				c1.192-0.204,0.984-2.12-0.249-2.288C187.918,298.381,188.171,300.902,189.696,300.507z M185.51,312.802
				c0.106,0.607,0.181,1.026,0.265,1.511C188.778,315.741,188.529,312.064,185.51,312.802z M186.432,329.592
				c-0.496,0.404-0.469,0.973-0.688,1.428C186.264,334.069,189.445,330.132,186.432,329.592z M184.716,305.483
				c0.389-1.382-0.993-1.715-2.047-0.975C182.213,305.852,184.275,307.173,184.716,305.483z M184.991,340.217
				c0.019-2.034-2.452-2.366-2.342-0.224c0.42,0.219,0.799,0.415,1.221,0.634C184.213,340.502,184.574,340.37,184.991,340.217z
				 M197.022,296.371c0.084,0.737,0.688,1.067,1.29,1.03l0.156-1.879C197.86,295.547,197.403,295.865,197.022,296.371z
				 M196.132,282.672c0.47-0.525,0.422-1.008-0.134-1.57C193.348,280.586,193.78,283.818,196.132,282.672z M184.67,346.262
				c-0.155-0.592-0.202-0.977-0.067-1.578c-0.54-0.266-1.041-0.578-1.677-0.126c-0.084,0.422-0.175,0.88-0.286,1.434
				c0.438,0.196,0.832,0.372,1.24,0.556C184.135,346.455,184.389,346.364,184.67,346.262z M188.366,316.62
				c0.336,0.893,1.176,0.631,1.949,1.04c0.217-0.241,0.426-0.472,0.607-0.673C190.732,315.56,188.729,314.986,188.366,316.62z
				 M183.167,333.157c-1.012,1.277,0.562,3.099,1.559,1.3C184.963,333.322,184.302,332.59,183.167,333.157z M190.087,281.097
				l-0.508,0.047l-0.562,1.751c0.66,0.307,1.1-0.389,1.743-0.826C190.657,281.606,190.398,281.333,190.087,281.097z
				 M193.561,336.449c-1.189-1.314-2.716-0.495-1.773,1.269C192.698,337.84,194.192,337.693,193.561,336.449z M182.403,356.367
				c0.046,0.668,0.544,0.996,0.767,1.465c0.626,0.111,1.003-0.303,1.482-0.508c0.307-0.926-0.498-1.205-0.942-1.73
				C183.237,355.873,182.807,356.127,182.403,356.367z M197.603,301.334c-0.204,0.477-0.401,0.94-0.608,1.424
				c0.239,0.31,0.512,0.5,0.826,0.586l0.172-2.073C197.867,301.279,197.738,301.297,197.603,301.334z M189.89,352.148
				c0.194-0.527,0.384-1.044,0.57-1.549C187.969,349.276,187.704,352.177,189.89,352.148z M188.739,340.299
				c0.604,0.223,1.066-0.253,1.627-0.22c0.261-0.605,0.111-1.089-0.294-1.552C188.923,338.034,187.678,339.355,188.739,340.299z
				 M186.862,289.617l-0.638,1.989c0.418,0.153,0.99,0.015,1.434-0.488C187.662,290.462,187.294,289.843,186.862,289.617z
				 M186.644,360.903c0.221-0.592,0.439-1.178,0.655-1.759c-0.229-0.118-0.509-0.166-0.814-0.209
				c-0.292,0.304-0.617,0.642-0.928,0.966C185.676,360.633,186.146,360.77,186.644,360.903z M193.296,289.858
				c-0.313-0.156-0.658-0.33-0.981-0.492c-0.953,0.865-1.021,1.181-0.472,2.24C193.227,291.555,193.432,291.311,193.296,289.858z
				 M188.557,288.895c1.392,0.214,2.927-1.831,1.221-2.264C189.042,286.932,188.4,288.069,188.557,288.895z M195.889,294.507
				c0.122-0.357,0.221-0.646,0.346-1.009c-0.451-0.355-0.904-0.711-1.412-1.111C193.363,293.345,194.381,294.937,195.889,294.507z
				 M195.442,298.243c-0.561-0.35-0.701,0.679-1.148,0.736c0.255,0.629,0.472,1.168,0.717,1.772
				C195.943,300.484,196.55,298.762,195.442,298.243z M195.209,334.881l0.139-1.673c-0.574,0.048-1.208,0.45-1.203,0.997
				C194.328,334.641,194.772,334.856,195.209,334.881z M198.842,291.009l0.08-0.971c-0.178-0.316-0.437-0.573-0.93-0.656
				c-0.441,0.458-1.188,0.764-0.946,1.661C198.13,291.229,198.43,291.255,198.842,291.009z M187.698,342.887
				c-0.115-0.419-0.217-0.791-0.375-1.367c-0.584,0.44-1.268,0.093-1.808,0.621C186.012,343.106,186.794,344.057,187.698,342.887z
				 M184.08,329.315c0.381-0.459,0.381-0.459,0.534-1.541c-0.455-0.184-0.919-0.12-1.385-0.065
				c-0.096,0.393-0.183,0.754-0.285,1.178C183.276,329.159,183.725,329.139,184.08,329.315z"/>
			<path style="fill:#A0D2F4;" d="M322.539,281.375c0.31,1.807,2.157,33.294-4.634,41.944c-6.791,8.65-33.142,12.14-46.527,7.781
				c-13.386-4.359-26.07-7.611-26.07-7.611s2.196,95.846,0.744,97.749c-1.49,1.952-57.038,3.374-58.276-2.493
				c-1.238-5.867,8.885-119.663,10.287-129.921c2.78-20.34,21.872-17.829,29.951-15.796c6.319,1.59,33.123,7.617,33.123,7.617
				l3.823-7.091L322.539,281.375z"/>
			<g>
				<path style="fill:#421B36;" d="M297.613,295.203c-6.526-2.406-13.132-4.589-19.812-6.527c-1.48-0.429-2.928-0.867-4.386-1.356
					c-5.162-1.734-10.325-3.467-15.487-5.2c-6.392-2.146-12.785-4.293-19.177-6.439c-3.377-1.134-6.746-2.46-10.202-3.34
					c-4.859-1.237-10.033-1.87-14.982-0.78c-4.527,0.996-8.533,3.56-11.477,7.125c-8.4,10.174-6.855,24.399-7.351,36.689
					c-0.561,13.903-2.116,27.737-3.2,41.603c-1.091,13.949-2.371,27.883-3.324,41.843c-0.248,3.633-0.473,7.268-0.665,10.905
					c-0.134,2.53-0.585,5.315-0.062,7.828c0.322,1.547,1.261,2.699,2.672,3.397c2.467,1.219,5.443,1.626,8.117,2.152
					c13.05,2.571,26.565,2.765,39.69,0.628c3.282-0.534,6.536-1.225,9.757-2.051c0.779-0.2,0.449-1.406-0.332-1.205
					c-12.782,3.276-26.081,4.227-39.204,2.856c-3.371-0.352-6.727-0.857-10.05-1.527c-1.57-0.316-3.133-0.668-4.685-1.061
					c-1.096-0.278-2.245-0.556-3.208-1.175c-1.634-1.049-1.724-2.925-1.687-4.7c0.07-3.366,0.32-6.739,0.524-10.1
					c0.82-13.556,2.033-27.083,3.136-40.618c1.097-13.463,2.448-26.917,3.324-40.397c0.436-6.717,0.539-13.423,0.713-20.148
					c0.165-6.395,0.743-12.972,3.49-18.842c2.158-4.613,5.676-8.637,10.37-10.759c4.516-2.042,9.654-2.07,14.46-1.242
					c4.024,0.693,7.787,2.09,11.641,3.385c5.995,2.013,11.99,4.026,17.985,6.039c5.583,1.875,11.166,3.749,16.749,5.624
					c5.691,1.911,11.477,3.494,17.175,5.388c3.07,1.02,6.122,2.093,9.157,3.212C298.037,296.687,298.363,295.48,297.613,295.203
					L297.613,295.203z"/>
			</g>
			<g>
				<path style="fill:#421B36;" d="M165.503,406.131c-6.513-1.259-12.901-3.204-19.146-5.422c-6.954-2.47-13.803-5.34-20.295-8.859
					c-3.154-1.71-6.248-3.58-9.075-5.798c-0.626-0.491-1.516,0.388-0.884,0.884c5.277,4.141,11.343,7.245,17.44,9.983
					c6.793,3.051,13.806,5.643,20.946,7.756c3.519,1.042,7.076,1.965,10.68,2.662C165.957,407.489,166.293,406.284,165.503,406.131
					L165.503,406.131z"/>
			</g>
		</g>
		<g>
			<path style="fill:#421B36;" d="M262.793,262.775c0.273-5.617-0.596-11.258-2.579-16.523c-0.435-1.156-0.921-2.295-1.454-3.41
				c-0.304-0.635-0.821-1.318-1.014-1.982c-0.012-0.041-0.105,0.155-0.135,0.004c-0.019-0.097,0.067-0.317,0.076-0.409
				c0.119-1.291,0.717-3.265-0.157-4.425c-0.398-0.528-1.135-0.571-1.743-0.641c-1.165-0.135-2.347-0.15-3.518-0.161
				c-3.142-0.029-6.288,0.083-9.425,0.252c-1.491,0.081-2.983,0.171-4.469,0.318c-0.626,0.062-1.57,0.018-2.125,0.376
				c-0.674,0.434-0.048,1.517,0.631,1.079c-0.099,0.064,0.21-0.047,0.365-0.07c0.375-0.055,0.751-0.098,1.129-0.135
				c1.098-0.109,2.2-0.184,3.302-0.251c2.906-0.178,5.819-0.29,8.731-0.318c1.296-0.012,2.594-0.011,3.889,0.049
				c0.57,0.026,1.689-0.081,2.201,0.245c0.156,0.099-0.031-0.066,0.045,0.045c0.181,0.266,0.144,0.86,0.146,1.157
				c0.004,0.778-0.105,1.551-0.235,2.316c-0.087,0.51-0.04,0.713,0.215,1.199c0.664,1.266,1.305,2.537,1.854,3.858
				c2.29,5.512,3.311,11.467,3.022,17.425C261.504,263.579,262.755,263.577,262.793,262.775L262.793,262.775z"/>
		</g>
		<path style="fill:#421B36;" d="M264.22,282.195c0,0,1.953,3.459,0.019,5.593c-1.933,2.134-25.656,8.766-29.687,8.937
			c-4.03,0.171-60.848-12.348-61.595-13.962c-0.747-1.614-0.613-4.222-0.613-4.222s-2.308-0.198-2.629-3.745
			c-0.32-3.55-5.755-43.645-4.283-47.185c1.472-3.54,6.275-2.949,11.102-1.952c4.827,0.997,53.553,9.629,55.874,12.355
			c2.321,2.725,3.405,2.691,4.118,7.399c0.713,4.708,4.531,30.667,4.531,30.667S262.309,279.753,264.22,282.195z"/>
		<path style="fill:#8380FF;" d="M192.569,259.412c-0.438,3.954,2.493,6.786,6.447,7.223c3.954,0.438,7.433-1.685,7.87-5.639
			c0.438-3.954-2.413-7.513-6.367-7.951C196.566,252.608,193.007,255.459,192.569,259.412z"/>
		<path style="fill:#8380FF;" d="M258.173,283.317l-16.484,3.477l-0.622-8.116C241.068,278.678,260.469,280.945,258.173,283.317z"/>
		<path style="fill:#8380FF;" d="M242.385,291.238c-0.095,0.858,0.543,1.334,1.258,1.413c0.715,0.079,1.237-0.268,1.332-1.126
			c0.095-0.858-0.408-1.618-1.123-1.697C243.137,289.748,242.48,290.379,242.385,291.238z"/>
		<path style="fill:#8380FF;" d="M238.464,292.335c-0.095,0.858,0.543,1.334,1.258,1.413c0.715,0.079,1.237-0.268,1.332-1.126
			s-0.408-1.618-1.123-1.697C239.215,290.845,238.559,291.477,238.464,292.335z"/>
		<g>
			<path style="fill:#8380FF;" d="M310.961,151.551c3.418,1.837,6.179,4.839,7.657,8.435c0.129,0.314,0.414,0.53,0.769,0.436
				c0.296-0.078,0.565-0.457,0.437-0.769c-1.604-3.902-4.508-7.181-8.231-9.182C310.883,150.091,310.251,151.17,310.961,151.551
				L310.961,151.551z"/>
		</g>
		<g>
			<path style="fill:#8380FF;" d="M297.832,162.579c6.772,2.718,14.895,1.022,20.059-4.115c0.571-0.568-0.313-1.452-0.884-0.884
				c-4.877,4.851-12.471,6.35-18.843,3.793C297.418,161.074,297.094,162.283,297.832,162.579L297.832,162.579z"/>
		</g>
		<g>
			<path style="fill:#8380FF;" d="M287.072,150.248c2.599,1.136,5.195,2.278,7.796,3.409c2.39,1.039,4.815,2.065,7.374,2.611
				c4.15,0.886,8.742,0.385,11.909-2.671c0.58-0.56-0.305-1.443-0.884-0.884c-3.219,3.107-7.968,3.151-12.04,2.016
				c-4.664-1.299-9.1-3.626-13.524-5.561C286.973,148.85,286.336,149.926,287.072,150.248L287.072,150.248z"/>
		</g>
		<g>
			<path style="fill:#8380FF;" d="M336.095,214.237c0.082,0.178,7.657,3.962,10.586,12.111
				c3.741,10.409,17.256,59.093,17.259,67.071c0.003,7.978-5.13,22.755-24.178,18.035c-19.048-4.72-30.216-14.662-31.426-17.026
				c-1.21-2.363,11.99-20.853,13.199-20.557c1.209,0.295,9.144,3.309,9.144,3.309l-11.201-39.001L336.095,214.237z"/>
			<g>
				<path style="fill:#421B36;" d="M344.815,276.622c-1.416-0.037-2.832,0.057-4.215,0.377c-1.371,0.316-2.683,0.839-3.981,1.373
					c-0.312,0.129-0.534,0.415-0.436,0.769c0.081,0.295,0.455,0.566,0.769,0.436c1.262-0.52,2.537-1.028,3.867-1.347
					c1.313-0.315,2.65-0.394,3.996-0.359C345.62,277.893,345.62,276.643,344.815,276.622L344.815,276.622z"/>
			</g>
			<g>
				<path style="fill:#421B36;" d="M330.164,275.473c-2.483-9.397-4.966-18.793-7.45-28.19c-0.278-1.051-0.327-1.773-1.182-2.377
					c-0.789-0.557-1.578-1.115-2.367-1.672c-1.41-0.996-2.819-1.992-4.229-2.988c-0.658-0.465-1.284,0.618-0.631,1.079
					c1.309,0.925,2.619,1.85,3.928,2.775c0.812,0.574,1.623,1.147,2.435,1.721c0.164,0.115,0.501,0.265,0.614,0.434
					c-0.02-0.03,0.032,0.599,0.035,0.638c0.048,0.55,0.304,1.151,0.446,1.687c2.398,9.075,4.797,18.151,7.195,27.226
					C329.164,276.582,330.37,276.253,330.164,275.473L330.164,275.473z"/>
			</g>
			<g>
				<path style="fill:#421B36;" d="M336.099,216.403c-8.527,0.849-16.109,6.576-19.265,14.541c-0.296,0.748,0.912,1.073,1.205,0.332
					c2.933-7.402,10.139-12.834,18.06-13.623C336.892,217.574,336.9,216.323,336.099,216.403L336.099,216.403z"/>
			</g>
			<g>
				<path style="fill:#FFBFBF;" d="M316.342,278.527c0,0-19.646-10.653-24.936-12.893c-6.72-2.845-14.112-4.888-20.142-3.942
					c-6.03,0.946-11.345,3.706-14.78,7.431c-4.006,4.344-4.092,6.771-1.723,8.474c2.369,1.704,5.486-2.278,8.288-5.374
					c2.802-3.096,7.267-4.36,7.267-4.36s-3.882,6.406-3.683,9.433c0.199,3.027,2.336,3.869,4.817,3.016c0,0,1.372,3.938,5.434,1.984
					c0,0,2.307,2.577,5.648,1.22c0,0,3.328,1.895,6.931,3.064c3.108,1.009,6.514,0.421,9.099-1.577l0.568-0.439
					c0,0,12.711,8.219,13.551,6.761S316.342,278.527,316.342,278.527z"/>
				<g>
					<path style="fill:#421B36;" d="M276.471,267.36c-3.184,3.425-4.962,8.211-5.622,12.785c-0.114,0.787,1.091,1.127,1.205,0.332
						c0.629-4.357,2.261-8.964,5.301-12.233C277.902,267.656,277.02,266.77,276.471,267.36L276.471,267.36z"/>
				</g>
				<g>
					<path style="fill:#421B36;" d="M281.372,270.415c-3.447,2.954-5.411,7.462-5.246,11.997c0.029,0.802,1.279,0.806,1.25,0
						c-0.155-4.234,1.664-8.358,4.88-11.113C282.868,270.775,281.98,269.895,281.372,270.415L281.372,270.415z"/>
				</g>
				<g>
					<path style="fill:#421B36;" d="M286.186,274.284c-1.301,1.175-2.42,2.554-3.309,4.064c-0.166,0.282-0.074,0.698,0.224,0.855
						c0.3,0.159,0.678,0.077,0.855-0.224c0.852-1.448,1.854-2.673,3.114-3.811c0.243-0.22,0.24-0.663,0-0.884
						C286.81,274.045,286.446,274.049,286.186,274.284L286.186,274.284z"/>
				</g>
				<g>
					<path style="fill:#421B36;" d="M283.912,278.845c0.096-0.085,0.324-0.13,0.449-0.111c0.222,0.034,0.403,0.128,0.538,0.293
						c0.359,0.439,0.309,1.063,0.141,1.569c-0.2,0.601-0.603,1.182-1.004,1.667c-0.41,0.496-0.916,0.939-1.597,0.893
						c-0.337-0.023-0.625,0.304-0.625,0.625c0,0.357,0.287,0.602,0.625,0.625c1.028,0.069,1.92-0.562,2.537-1.329
						c0.601-0.747,1.206-1.618,1.381-2.581c0.172-0.949-0.059-2.004-0.862-2.606c-0.737-0.552-1.772-0.542-2.466,0.07
						c-0.253,0.223-0.228,0.656,0,0.884C283.279,279.096,283.658,279.069,283.912,278.845L283.912,278.845z"/>
				</g>
				<g>
					<path style="fill:#421B36;" d="M285.874,281.141c1.634,0.651,3.371,1.331,5.164,1.197c1.516-0.113,2.933-0.742,3.836-1.994
						c0.199-0.276,0.046-0.694-0.224-0.855c-0.313-0.187-0.659-0.048-0.855,0.224c-0.702,0.974-1.968,1.379-3.125,1.391
						c-1.554,0.016-3.045-0.602-4.464-1.168c-0.316-0.126-0.683,0.138-0.769,0.436C285.336,280.727,285.562,281.017,285.874,281.141
						L285.874,281.141z"/>
				</g>
				<g>
					<path style="fill:#421B36;" d="M273.944,264.581c-3.145,1.276-5.033,4.005-6.49,6.939c-1.362,2.743-2.782,7.17,0.84,8.845
						c0.958,0.443,2.101,0.648,3.157,0.572c0.798-0.057,0.804-1.307,0-1.25c-1.906,0.136-4.141-0.681-4.24-2.873
						c-0.12-2.655,1.576-5.417,3.004-7.547c1.031-1.538,2.323-2.775,4.061-3.48C275.012,265.488,274.691,264.278,273.944,264.581
						L273.944,264.581z"/>
				</g>
			</g>
			<path style="fill:#8380FF;" d="M313.542,292.662c0,0-12.067-0.069-12.569-5.868c-0.502-5.799,2.977-16.384,6.284-15.168
				c3.307,1.216,14.979,3.66,15.743,5.738C323.764,279.442,313.542,292.662,313.542,292.662z"/>
			<g>
				<path style="fill:#421B36;" d="M319.803,275.372c2.212-2.222,5.801-0.23,8.174,0.699c2.743,1.073,5.473,2.176,8.188,3.316
					c5.527,2.321,10.986,4.802,16.355,7.467c0.718,0.357,1.352-0.721,0.631-1.079c-5.895-2.926-11.898-5.624-17.976-8.145
					c-3.01-1.249-6.035-2.467-9.081-3.623c-2.376-0.901-5.177-1.525-7.175,0.481C318.351,275.059,319.234,275.943,319.803,275.372
					L319.803,275.372z"/>
			</g>
			<g>
				<path style="fill:#421B36;" d="M308.495,293.723c1.526-7.187,5.405-13.694,10.998-18.459c0.613-0.522-0.274-1.403-0.884-0.884
					c-5.74,4.889-9.754,11.635-11.319,19.01C307.123,294.175,308.328,294.51,308.495,293.723L308.495,293.723z"/>
			</g>
			<g>
				<path style="fill:#421B36;" d="M304.606,273.03c2.034-1.327,4.72-1.407,7.036-0.917c2.69,0.569,5.072,1.958,7.403,3.357
					c0.691,0.415,1.321-0.665,0.631-1.079c-2.547-1.529-5.194-3.055-8.16-3.572c-2.514-0.438-5.348-0.299-7.541,1.132
					C303.304,272.388,303.93,273.471,304.606,273.03L304.606,273.03z"/>
			</g>
		</g>
		<path style="fill:#8380FF;" d="M291.805,210.202c-0.326-1.168-2.541-6.621,0.301-8.214c3.51-1.967,18.891-8.549,20.837-4.227
			c1.946,4.323,2.58,8.728,1.728,10.131C313.817,209.295,294.344,219.303,291.805,210.202z"/>
		<g>
			<path style="fill:#421B36;" d="M307.143,211.674c1.809-0.232,3.485-1.133,4.951-2.183c1.475-1.056,2.893-2.329,3.843-3.892
				c0.419-0.689-0.662-1.318-1.079-0.631c-0.834,1.373-2.098,2.515-3.394,3.443c-1.257,0.9-2.755,1.812-4.32,2.012
				c-0.335,0.043-0.625,0.257-0.625,0.625C306.518,211.353,306.806,211.717,307.143,211.674L307.143,211.674z"/>
		</g>
		<g>
			<path style="fill:#421B36;" d="M292.543,200.64c-2.426,1.297-2.306,4.377-1.94,6.712c0.369,2.353,1.752,4.95,4.45,4.992
				c0.805,0.013,0.805-1.237,0-1.25c-2.114-0.033-2.972-2.325-3.245-4.074c-0.276-1.768-0.5-4.303,1.366-5.3
				C293.883,201.34,293.253,200.26,292.543,200.64L292.543,200.64z"/>
		</g>
		<path style="fill:#421B36;" d="M308.867,181.148c-1.437,3.339,1.819,7.414-0.018,10.579c-0.594,1.024-1.635,1.75-2.435,2.645
			c-1.991,2.228-2.322,5.612-0.794,8.137c-2.898,0.3-5.224,2.802-5.509,5.495c-0.285,2.694,1.25,5.392,3.572,7.03
			c2.322,1.638,5.325,2.296,8.24,2.227c2.915-0.069,5.766-0.817,8.498-1.764c4.002-1.387,8.044-3.397,10.159-6.842
			c2.64-4.3,1.638-9.65,0.56-14.497"/>
		<path style="fill:#421B36;" d="M283.417,395.609c0,0,45.058-11.837,46.912-9.213c1.854,2.624,2.258,12.284,2.258,12.284
			s-49.854,8.67-50.773,8.053C280.895,406.117,283.417,395.609,283.417,395.609z"/>
		<path style="fill:#421B36;" d="M261.539,332.294c10.485-9.523,23.941-15.727,37.991-17.518c14.051-1.79,28.632,0.842,41.17,7.432
			c0,0,1.317,6.666,0.004,9.261c-1.314,2.595-78.251,14.857-79.161,10.78C260.632,338.173,261.539,332.294,261.539,332.294z"/>
	</g>
</g>
</svg>
